<svg width="48" height="49" viewBox="0 0 48 49" fill="none" xmlns="http://www.w3.org/2000/svg">
<path d="M40.5984 43.7507H7.37812C5.47969 43.7507 3.9375 42.1764 3.9375 40.2384V10.8719C3.9375 8.94829 5.47031 7.38354 7.35469 7.38354H11.5312V10.2546H7.35469C7.02187 10.2546 6.75 10.5322 6.75 10.8719V40.2384C6.75 40.5925 7.03125 40.8796 7.37812 40.8796H40.5984C40.95 40.8796 41.25 40.5734 41.25 40.2145V10.8958C41.25 10.5417 40.9688 10.2546 40.6219 10.2546H36.2344V7.38354H40.6219C42.5203 7.38354 44.0625 8.95786 44.0625 10.8958V40.2145C44.0625 42.1621 42.5062 43.7507 40.5984 43.7507Z" fill="#F6F1EF"/>
<path d="M28.6406 7.41699H19.5V10.2881H28.6406V7.41699Z" fill="#F6F1EF"/>
<path d="M16.9219 5.26367H14.1094V13.1592H16.9219V5.26367Z" fill="#F6F1EF"/>
<path d="M18.5625 11.7715H12.4688V14.6426H18.5625V11.7715Z" fill="#F6F1EF"/>
<path d="M33.7969 5.31152H30.9844V13.207H33.7969V5.31152Z" fill="#F6F1EF"/>
<path d="M35.3906 11.7715H29.2969V14.6426H35.3906V11.7715Z" fill="#F6F1EF"/>
<path d="M21.2156 34.9557L14.6578 28.2565L16.65 26.2276L21.2156 30.8931L31.35 20.5476L33.3422 22.5765L21.2156 34.9557Z" fill="#F6F1EF"/>
</svg>
