<svg width="582" height="26" viewBox="0 0 582 26" fill="none" xmlns="http://www.w3.org/2000/svg">
<circle cx="294.261" cy="13.1298" r="12.1445" fill="#A89D9D"/>
<path d="M257.828 14.0302C257.828 20.7374 263.265 26.1747 269.972 26.1747V1.88574C263.265 1.88574 257.828 7.32301 257.828 14.0302Z" fill="#A89D9D"/>
<path d="M269.972 14.0302C269.972 20.7374 275.41 26.1747 282.117 26.1747V1.88574C275.41 1.88574 269.972 7.32301 269.972 14.0302Z" fill="#A89D9D"/>
<path d="M318.55 14.0302C318.55 20.7374 323.988 26.1747 330.695 26.1747V1.88574C323.988 1.88574 318.55 7.32301 318.55 14.0302Z" fill="#A89D9D"/>
<path d="M342.839 14.0302C342.839 20.7374 348.276 26.1747 354.984 26.1747V1.88574C348.276 1.88574 342.839 7.32301 342.839 14.0302Z" fill="#A89D9D"/>
<path d="M367.128 14.0308C360.421 14.0308 354.984 19.468 354.984 26.1752L379.273 26.1752C379.273 19.468 373.835 14.0308 367.128 14.0308Z" fill="#A89D9D"/>
<path d="M367.128 14.0308C373.835 14.0308 379.273 8.5935 379.273 1.88629L354.984 1.88629C354.984 8.5935 360.421 14.0308 367.128 14.0308Z" fill="#A89D9D"/>
<path d="M318.55 14.0308C318.55 7.32361 313.113 1.88635 306.406 1.88635L306.406 26.1753C313.113 26.1753 318.55 20.738 318.55 14.0308Z" fill="#A89D9D"/>
<path d="M342.839 14.0308C342.839 7.32361 337.402 1.88635 330.695 1.88635L330.695 26.1753C337.402 26.1753 342.839 20.738 342.839 14.0308Z" fill="#A89D9D"/>
<rect x="379.273" y="1.88721" width="1.27836" height="24.289" fill="#A89D9D"/>
<rect x="381.829" y="1.88623" width="1.27836" height="24.289" fill="#A89D9D"/>
<rect x="384.386" y="1.88623" width="1.27836" height="24.289" fill="#A89D9D"/>
<rect x="386.943" y="1.88623" width="1.27836" height="24.289" fill="#A89D9D"/>
<rect x="389.5" y="1.88623" width="1.27836" height="24.289" fill="#A89D9D"/>
<rect x="392.056" y="1.88623" width="1.27836" height="24.289" fill="#A89D9D"/>
<rect x="394.613" y="1.88623" width="1.27836" height="24.289" fill="#A89D9D"/>
<rect x="397.17" y="1.88623" width="1.27836" height="24.289" fill="#A89D9D"/>
<rect x="399.727" y="1.88623" width="1.27836" height="24.289" fill="#A89D9D"/>
<rect x="402.283" y="1.88623" width="1.27836" height="24.289" fill="#A89D9D"/>
<rect x="404.627" y="1.88721" width="1.27836" height="24.289" fill="#A89D9D"/>
<rect x="407.184" y="1.88623" width="1.27836" height="24.289" fill="#A89D9D"/>
<rect x="409.741" y="1.88623" width="1.27836" height="24.289" fill="#A89D9D"/>
<rect x="412.298" y="1.88623" width="1.27836" height="24.289" fill="#A89D9D"/>
<rect x="414.854" y="1.88623" width="1.27836" height="24.289" fill="#A89D9D"/>
<rect x="417.411" y="1.88623" width="1.27836" height="24.289" fill="#A89D9D"/>
<rect x="419.968" y="1.88623" width="1.27836" height="24.289" fill="#A89D9D"/>
<rect x="422.524" y="1.88623" width="1.27836" height="24.289" fill="#A89D9D"/>
<rect x="425.081" y="1.88623" width="1.27836" height="24.289" fill="#A89D9D"/>
<rect x="427.638" y="1.88623" width="1.27836" height="24.289" fill="#A89D9D"/>
<circle cx="465.351" cy="13.1298" r="12.1445" fill="#A89D9D"/>
<path d="M428.917 14.0302C428.917 20.7374 434.355 26.1747 441.062 26.1747V1.88574C434.355 1.88574 428.917 7.32301 428.917 14.0302Z" fill="#A89D9D"/>
<path d="M441.062 14.0302C441.062 20.7374 446.499 26.1747 453.206 26.1747V1.88574C446.499 1.88574 441.062 7.32301 441.062 14.0302Z" fill="#A89D9D"/>
<path d="M489.64 14.0302C489.64 20.7374 495.077 26.1747 501.784 26.1747V1.88574C495.077 1.88574 489.64 7.32301 489.64 14.0302Z" fill="#A89D9D"/>
<path d="M513.929 14.0302C513.929 20.7374 519.366 26.1747 526.073 26.1747V1.88574C519.366 1.88574 513.929 7.32301 513.929 14.0302Z" fill="#A89D9D"/>
<path d="M538.218 14.0308C531.511 14.0308 526.073 19.468 526.073 26.1752L550.362 26.1752C550.362 19.468 544.925 14.0308 538.218 14.0308Z" fill="#A89D9D"/>
<path d="M538.218 14.0308C544.925 14.0308 550.362 8.5935 550.362 1.88629L526.073 1.88629C526.073 8.5935 531.511 14.0308 538.218 14.0308Z" fill="#A89D9D"/>
<path d="M489.64 14.0308C489.64 7.32361 484.203 1.88635 477.495 1.88635L477.495 26.1753C484.203 26.1753 489.64 20.738 489.64 14.0308Z" fill="#A89D9D"/>
<path d="M513.929 14.0308C513.929 7.32361 508.491 1.88635 501.784 1.88635L501.784 26.1753C508.491 26.1753 513.929 20.738 513.929 14.0308Z" fill="#A89D9D"/>
<rect x="550.362" y="1.88721" width="1.27836" height="24.289" fill="#A89D9D"/>
<rect x="552.919" y="1.88623" width="1.27836" height="24.289" fill="#A89D9D"/>
<rect x="555.476" y="1.88623" width="1.27836" height="24.289" fill="#A89D9D"/>
<rect x="558.032" y="1.88623" width="1.27836" height="24.289" fill="#A89D9D"/>
<rect x="560.589" y="1.88623" width="1.27836" height="24.289" fill="#A89D9D"/>
<rect x="563.146" y="1.88623" width="1.27836" height="24.289" fill="#A89D9D"/>
<rect x="565.703" y="1.88623" width="1.27836" height="24.289" fill="#A89D9D"/>
<rect x="568.259" y="1.88623" width="1.27836" height="24.289" fill="#A89D9D"/>
<rect x="570.816" y="1.88623" width="1.27836" height="24.289" fill="#A89D9D"/>
<rect x="573.373" y="1.88623" width="1.27836" height="24.289" fill="#A89D9D"/>
<rect x="575.717" y="1.88721" width="1.27836" height="24.289" fill="#A89D9D"/>
<rect x="578.274" y="1.88623" width="1.27836" height="24.289" fill="#A89D9D"/>
<rect x="580.83" y="1.88623" width="1.27836" height="24.289" fill="#A89D9D"/>
<rect x="0.00585938" y="1.30566" width="172.391" height="24.8686" fill="#00B2A2"/>
<rect x="172.398" y="1.30518" width="85.4299" height="24.8688" fill="#E94444"/>
</svg>
