<svg width="609" height="254" viewBox="0 0 609 254" fill="none" xmlns="http://www.w3.org/2000/svg">
<path d="M315.135 119.561C309.963 119.561 303.122 118.798 298.882 117.271C294.642 115.745 291.039 113.583 288.071 110.785C285.103 107.902 282.771 104.425 281.076 100.355C279.464 96.2848 278.659 91.7484 278.659 86.7456V29.5099H293.667V85.0921C293.667 91.3668 295.406 96.2425 298.882 99.719C302.359 103.111 309.2 104.807 315.135 104.807C321.071 104.807 327.912 103.111 331.389 99.719C334.865 96.2425 336.604 91.3668 336.604 85.0921V29.5099H351.612V86.7456C351.612 91.7484 350.764 96.2848 349.068 100.355C347.457 104.425 345.125 107.902 342.073 110.785C339.105 113.583 335.501 115.745 331.262 117.271C327.107 118.798 320.308 119.561 315.135 119.561Z" fill="#F6F1EF"/>
<path d="M424.774 71.1012C428.589 73.1362 431.557 76.0616 433.677 79.8773C435.797 83.693 436.857 88.0175 436.857 92.8507C436.857 96.7512 436.221 100.27 434.949 103.408C433.677 106.545 431.854 109.258 429.48 111.548C427.105 113.752 424.265 115.491 420.958 116.762C417.736 117.95 414.132 118.543 410.147 118.543H373.516V29.5099H408.112C411.758 29.5099 415.107 30.0611 418.16 31.1634C421.212 32.2657 423.798 33.8344 425.918 35.8695C428.123 37.9045 429.819 40.3635 431.006 43.2465C432.278 46.1295 432.914 49.3092 432.914 52.7858C432.914 56.6015 432.193 60.078 430.752 63.2154C429.395 66.2679 427.402 68.8965 424.774 71.1012ZM388.143 43.5009V65.632H406.967C410.613 65.632 413.326 64.6569 415.107 62.7066C416.973 60.6716 417.905 57.9158 417.905 54.4392C417.905 50.9627 416.888 48.2917 414.853 46.4263C412.902 44.476 410.147 43.5009 406.585 43.5009H388.143ZM408.875 104.425C412.86 104.425 415.997 103.365 418.287 101.245C420.576 99.0406 421.721 95.8609 421.721 91.706C421.721 87.7207 420.619 84.6257 418.414 82.4211C416.209 80.2165 413.114 79.1142 409.129 79.1142H388.143V104.425H408.875Z" fill="#F6F1EF"/>
<path d="M471.519 104.171H519.719V118.543L456.638 118.543V29.5099H518.829V43.7553H471.519V66.5223H516.285V80.6404H471.519V104.171Z" fill="#F6F1EF"/>
<path d="M607.298 117.017V118.543H589.746L559.856 80.2589V73.009H574.229C578.808 73.009 582.411 71.7371 585.04 69.1933C587.753 66.6495 589.11 63.0882 589.11 58.5093C589.11 53.9305 587.711 50.3268 584.913 47.6982C582.115 45.0696 578.384 43.7553 573.72 43.7553H556.804V118.543H541.923V29.5099H574.229C579.232 29.5099 583.599 30.3155 587.329 31.9266C591.06 33.5376 594.198 35.6575 596.742 38.2861C599.285 40.9147 601.193 43.9672 602.465 47.4438C603.737 50.8355 604.373 54.3544 604.373 58.0006C604.373 61.1379 603.864 64.1905 602.847 67.1583C601.914 70.126 600.472 72.8394 598.522 75.2985C596.657 77.6727 594.24 79.7077 591.272 81.4036C588.389 83.0994 585.04 84.2866 581.224 84.9649L607.298 117.017Z" fill="#F6F1EF"/>
<path d="M328.166 134.135H352.205V223.168H328.166V189.717H301.711V223.168H277.799V134.135H301.711V166.696H328.166V134.135Z" fill="#F6F1EF"/>
<path d="M415.893 134.135L448.326 220.497V223.168H423.524L419.327 209.432H390.582L386.13 223.168H361.583V220.497L393.889 134.135H415.893ZM413.731 190.48L404.955 165.297L396.178 190.48H413.731Z" fill="#F6F1EF"/>
<path d="M489.798 224.567C484.202 224.567 479.114 223.804 474.536 222.278C470.042 220.667 466.183 218.42 462.961 215.537C459.739 212.654 457.238 209.135 455.457 204.98C453.761 200.825 452.913 196.162 452.913 190.989V134.135H476.952V187.046C476.952 191.964 478.055 195.653 480.259 198.112C482.549 200.486 485.728 201.673 489.798 201.673C493.784 201.673 496.879 200.486 499.083 198.112C501.288 195.653 502.39 191.964 502.39 187.046V134.135H526.429V190.989C526.429 196.162 525.539 200.825 523.758 204.98C522.062 209.05 519.603 212.569 516.381 215.537C513.159 218.42 509.301 220.667 504.807 222.278C500.313 223.804 495.31 224.567 489.798 224.567Z" fill="#F6F1EF"/>
<path d="M573.769 224.44C568.427 224.44 563.594 223.804 559.269 222.532C555.029 221.176 551.341 219.225 548.204 216.682C545.151 214.138 542.734 211.001 540.954 207.27C539.258 203.454 538.283 199.129 538.028 194.296H561.559C562.067 200.317 566.137 203.327 573.769 203.327C577.245 203.327 579.916 202.733 581.782 201.546C583.732 200.274 584.707 198.621 584.707 196.586C584.707 194.296 583.52 192.473 581.146 191.116C578.856 189.76 574.956 188.657 569.444 187.809C564.95 187.131 560.838 186.156 557.107 184.884C553.376 183.527 550.154 181.832 547.44 179.797C544.812 177.677 542.734 175.09 541.208 172.038C539.767 168.901 539.046 165.212 539.046 160.972C539.046 156.478 539.894 152.493 541.59 149.016C543.286 145.54 545.617 142.615 548.585 140.24C551.638 137.781 555.241 135.916 559.396 134.644C563.551 133.372 568.088 132.736 573.006 132.736C577.924 132.736 582.375 133.414 586.361 134.771C590.431 136.128 593.907 138.036 596.79 140.495C599.758 142.954 602.09 145.964 603.786 149.525C605.566 153.087 606.626 157.114 606.965 161.608H583.817C583.054 156.266 579.365 153.595 572.751 153.595C569.529 153.595 567.028 154.189 565.247 155.376C563.466 156.478 562.576 158.132 562.576 160.336C562.576 162.541 563.636 164.195 565.756 165.297C567.96 166.399 571.861 167.417 577.457 168.349C582.121 169.028 586.361 170.045 590.176 171.402C593.992 172.759 597.257 174.539 599.97 176.744C602.768 178.949 604.888 181.62 606.33 184.757C607.856 187.894 608.619 191.583 608.619 195.822C608.619 200.486 607.729 204.599 605.948 208.16C604.252 211.721 601.835 214.731 598.698 217.19C595.561 219.565 591.872 221.388 587.633 222.66C583.393 223.847 578.772 224.44 573.769 224.44Z" fill="#F6F1EF"/>
<path d="M57.9563 138.49C58.2652 165.13 58.504 167.653 61.2942 173.751C63.9557 179.567 70.4207 186.703 76.1298 190.126C81.7349 193.486 87.2199 194.971 94.2053 195.019C94.3919 195.021 94.5759 195.022 94.7574 195.022C94.9389 195.022 95.1229 195.021 95.3095 195.019C102.295 194.971 107.78 193.486 113.385 190.126C119.094 186.703 125.559 179.567 128.221 173.751C131.011 167.653 131.25 165.13 131.559 138.49V99.5582C131.559 98.7333 130.663 98.2201 129.951 98.637L116.332 106.615C116.005 106.806 115.804 107.157 115.804 107.536V141.915C115.456 165.2 115.466 165.126 112.095 170.146C108.142 176.034 101.545 179.389 94.7574 179.371C87.9695 179.389 81.3727 176.034 77.4198 170.146C74.049 165.126 74.0588 165.2 73.7104 141.915V108.214C73.7104 107.835 73.5095 107.485 73.1825 107.293L59.5635 99.3153C58.8518 98.8983 57.9563 99.4116 57.9563 100.236V138.49Z" fill="#F6F1EF"/>
<path d="M30.5739 82.55C29.8662 82.1387 28.9786 82.6312 28.9717 83.4497C28.9247 89.0639 28.7974 106.792 28.892 124.45C29.0733 158.171 29.2267 164.045 30.0565 169.041C32.4387 183.378 38.2124 194.492 48.7088 204.947C61.247 217.435 77.8988 224.198 94.7574 224.25C111.616 224.198 128.268 217.435 140.806 204.947C151.302 194.492 157.076 183.378 159.458 169.041C160.288 164.045 160.441 158.171 160.623 124.45C160.717 106.792 160.59 89.0639 160.543 83.4497C160.536 82.6312 159.649 82.1387 158.941 82.55L144.864 90.7314C144.535 90.9225 144.332 91.2741 144.332 91.6544V127.352C144.332 166.268 144.183 168.533 141.102 176.472C140.245 178.682 138.1 182.661 136.338 185.315C129.112 196.191 118.903 203.661 106.812 206.921C103.705 207.759 99.2341 208.179 94.7574 208.181C90.2807 208.179 85.8099 207.759 82.7027 206.921C70.6113 203.661 60.4031 196.191 53.1773 185.315C51.4146 182.661 49.2702 178.682 48.4124 176.472C45.3314 168.533 45.1824 166.268 45.1824 127.352V91.6545C45.1824 91.2742 44.9801 90.9225 44.6513 90.7314L30.5739 82.55Z" fill="#F6F1EF"/>
<path d="M0.418225 113.83C0.610483 171.122 0.644439 172.734 1.76512 177.809C3.53652 185.832 5.41253 191.144 9.21496 198.907C17.1665 215.138 27.8765 227.409 42.7368 237.314C58.7954 248.017 76.8543 253.195 94.7574 253.187C112.661 253.195 130.719 248.017 146.778 237.314C161.638 227.409 172.348 215.138 180.3 198.907C184.102 191.144 185.978 185.832 187.75 177.809C188.87 172.734 188.904 171.122 189.097 113.83L189.236 66.9044C189.238 66.0837 188.352 65.5673 187.639 65.9738L173.771 73.8802C173.43 74.0747 173.222 74.4335 173.227 74.8262C173.256 77.0582 173.329 86.1909 173.218 117.007C173.006 175.482 173.155 172.47 169.983 182.444C168.143 188.228 161.822 200.528 158.001 205.757C147.256 220.465 129.191 231.916 110.349 235.965C106.435 236.806 100.546 237.249 94.7574 237.274C88.9684 237.249 83.0795 236.806 79.166 235.965C60.3242 231.916 42.2591 220.465 31.5135 205.757C27.693 200.528 21.3715 188.228 19.5322 182.444C16.3597 172.47 16.5087 175.482 16.2973 117.007C16.1857 86.1909 16.2588 77.0582 16.2873 74.8261C16.2923 74.4335 16.0845 74.0747 15.7433 73.8802L1.87719 65.9747C1.16388 65.568 0.277555 66.0694 0.280659 66.8905C0.309541 74.5291 0.418221 103.931 0.418225 113.83Z" fill="#F6F1EF"/>
<path d="M18.4051 59.2914C19.0629 59.6703 19.8725 59.6715 20.5314 59.2945L94.2255 17.1265C94.5548 16.9381 94.9593 16.9385 95.2882 17.1277L168.578 59.292C169.236 59.6706 170.045 59.6713 170.704 59.294L181.948 52.8522C182.663 52.4424 182.664 51.411 181.949 51.0002L95.8187 1.50092C95.1612 1.12307 94.3527 1.12227 93.6945 1.49882L7.1985 50.9817C6.48313 51.3909 6.48156 52.422 7.19569 52.8334L18.4051 59.2914Z" fill="#A89D9D"/>
<path d="M46.6672 75.3109C47.3239 75.6892 48.1319 75.6911 48.7903 75.3159L94.2311 49.4194C94.559 49.2325 94.9611 49.2326 95.2888 49.4197L140.632 75.2944C141.289 75.6693 142.095 75.6686 142.751 75.2926L153.994 68.8515C154.711 68.441 154.71 67.4073 153.993 66.9979L95.818 33.7904C95.1623 33.4161 94.3577 33.416 93.7018 33.79L35.4623 67.0007C34.7458 67.4093 34.7435 68.4415 35.4582 68.8532L46.6672 75.3109Z" fill="#A89D9D"/>
<path d="M73.7488 90.9139C74.4033 91.291 75.2083 91.2942 75.8658 90.9223L94.2312 80.5346C94.5577 80.35 94.9572 80.3502 95.2835 80.5353L113.556 90.8996C114.212 91.2719 115.016 91.2702 115.67 90.8951L126.914 84.4537C127.631 84.0429 127.629 83.0081 126.911 82.5994L95.8125 64.9058C95.1584 64.5336 94.3565 64.5333 93.7021 64.905L62.5447 82.6024C61.8267 83.0102 61.8236 84.0436 62.539 84.4558L73.7488 90.9139Z" fill="#A89D9D"/>
</svg>
