<?xml version="1.0" encoding="UTF-8" standalone="no"?>
<svg
   width="164"
   height="68"
   viewBox="0 0 164 68"
   fill="none"
   version="1.1"
   id="svg18599"
   sodipodi:docname="footer-logo.svg"
   inkscape:version="1.1.2 (0a00cf5, 2022-02-04)"
   xmlns:inkscape="http://www.inkscape.org/namespaces/inkscape"
   xmlns:sodipodi="http://sodipodi.sourceforge.net/DTD/sodipodi-0.dtd"
   xmlns="http://www.w3.org/2000/svg"
   xmlns:svg="http://www.w3.org/2000/svg">
  <defs
     id="defs18603" />
  <sodipodi:namedview
     id="namedview18601"
     pagecolor="#ffffff"
     bordercolor="#666666"
     borderopacity="1.0"
     inkscape:pageshadow="2"
     inkscape:pageopacity="0.0"
     inkscape:pagecheckerboard="0"
     showgrid="false"
     inkscape:zoom="7.6219512"
     inkscape:cx="82"
     inkscape:cy="34.0464"
     inkscape:window-width="1488"
     inkscape:window-height="832"
     inkscape:window-x="0"
     inkscape:window-y="0"
     inkscape:window-maximized="1"
     inkscape:current-layer="svg18599" />
  <path
     d="m 87.9244,7.7855 h 6.441 V 31.641 h -6.441 V 22.6782 H 80.8359 V 31.641 H 74.429 V 7.7855 h 6.4069 v 8.7243 h 7.0885 z"
     fill="#f6f1ef"
     id="path18579" />
  <path
     d="m 111.43,7.7855 8.69,23.1399 v 0.7156 h -6.645 l -1.125,-3.6805 h -7.702 l -1.193,3.6805 H 96.8779 V 30.9254 L 105.534,7.7855 Z m -0.58,15.0971 -2.351,-6.7477 -2.351,6.7477 z"
     fill="#f6f1ef"
     id="path18581" />
  <path
     d="m 131.232,32.0159 c -1.499,0 -2.863,-0.2045 -4.089,-0.6134 -1.205,-0.4317 -2.238,-1.0338 -3.102,-1.8062 -0.863,-0.7725 -1.533,-1.7154 -2.01,-2.8286 -0.455,-1.1133 -0.682,-2.3628 -0.682,-3.7487 V 7.7855 h 6.441 v 14.177 c 0,1.3177 0.295,2.306 0.886,2.9649 0.614,0.6361 1.466,0.9542 2.556,0.9542 1.068,0 1.897,-0.3181 2.488,-0.9542 0.591,-0.6589 0.886,-1.6472 0.886,-2.9649 V 7.7855 h 6.441 V 23.019 c 0,1.3859 -0.239,2.6354 -0.716,3.7487 -0.454,1.0905 -1.113,2.0334 -1.976,2.8286 -0.864,0.7724 -1.897,1.3745 -3.102,1.8062 -1.204,0.4089 -2.544,0.6134 -4.021,0.6134 z"
     fill="#f6f1ef"
     id="path18583" />
  <path
     d="m 153.731,31.9818 c -1.431,0 -2.726,-0.1704 -3.885,-0.5112 -1.136,-0.3635 -2.124,-0.886 -2.965,-1.5676 -0.818,-0.6816 -1.465,-1.5222 -1.942,-2.5219 -0.455,-1.0224 -0.716,-2.1811 -0.784,-3.4761 h 6.304 c 0.137,1.6131 1.227,2.4197 3.272,2.4197 0.932,0 1.647,-0.1591 2.147,-0.4772 0.523,-0.3408 0.784,-0.7838 0.784,-1.329 0,-0.6135 -0.318,-1.1019 -0.954,-1.4655 -0.614,-0.3635 -1.659,-0.6588 -3.136,-0.886 -1.204,-0.1818 -2.306,-0.4431 -3.305,-0.7839 -1,-0.3635 -1.863,-0.8179 -2.59,-1.3631 -0.705,-0.568 -1.261,-1.261 -1.67,-2.0789 -0.386,-0.8406 -0.58,-1.8289 -0.58,-2.9649 0,-1.2041 0.228,-2.2719 0.682,-3.2034 0.454,-0.9315 1.079,-1.7154 1.874,-2.3515 0.818,-0.6589 1.784,-1.1587 2.897,-1.4995 1.113,-0.3408 2.329,-0.5112 3.647,-0.5112 1.317,0 2.51,0.1818 3.578,0.5453 1.09,0.3635 2.022,0.8747 2.794,1.5336 0.796,0.6588 1.42,1.4654 1.875,2.4196 0.477,0.9542 0.761,2.0334 0.852,3.2375 h -6.203 c -0.204,-1.4313 -1.192,-2.147 -2.965,-2.147 -0.863,0 -1.533,0.1591 -2.01,0.4771 -0.477,0.2954 -0.716,0.7384 -0.716,1.3291 0,0.5907 0.284,1.0338 0.852,1.3291 0.591,0.2954 1.636,0.568 3.135,0.8179 1.25,0.1818 2.386,0.4544 3.408,0.8179 1.023,0.3636 1.897,0.8407 2.624,1.4314 0.75,0.5907 1.318,1.3063 1.704,2.147 0.409,0.8406 0.614,1.8289 0.614,2.9649 0,1.2496 -0.239,2.3515 -0.716,3.3057 -0.454,0.9542 -1.102,1.7607 -1.942,2.4196 -0.841,0.6362 -1.829,1.1246 -2.965,1.4654 -1.136,0.3181 -2.374,0.4771 -3.715,0.4771 z"
     fill="#f6f1ef"
     id="path18585" />
  <g
     aria-label="DAO"
     id="text4429"
     style="font-size:122.667px;line-height:1.25;fill:#f6f1ef;fill-opacity:1"
     transform="matrix(0.26086744,0,0,0.26086744,-71.458145,22.186377)">
    <path
       d="m 571.38082,61.83944 v 69.53925 h 14.61463 q 18.50786,0 27.07299,-8.38544 8.62502,-8.38544 8.62502,-26.474029 0,-17.968798 -8.62502,-26.294342 -8.56513,-8.385439 -27.07299,-8.385439 z m -12.09899,-9.942736 h 24.85684 q 25.99486,0 38.15375,10.841176 12.15889,10.781279 12.15889,33.781341 0,23.119859 -12.21879,33.961029 -12.21878,10.84118 -38.09385,10.84118 h -24.85684 z"
       id="path17499"
       style="fill:#f6f1ef;fill-opacity:1" />
    <path
       d="m 677.46966,63.816008 -16.4115,44.502722 h 32.8829 z m -6.82814,-11.919304 h 13.71618 l 33.14152,86.960096 0.0585,2.33043 -11.6974,0.1342 -8.14585,-22.94017 H 657.4045 l -8.14585,22.94017 h -11.76713 l 0.14997,-3.01234 z"
       id="path17501"
       sodipodi:nodetypes="ccccccccccccccc"
       style="fill:#f6f1ef;fill-opacity:1" />
    <path
       d="m 761.63658,60.102456 q -13.17712,0 -20.9636,9.822943 -7.72659,9.822943 -7.72659,26.77351 0,16.890671 7.72659,26.713611 7.78648,9.82295 20.9636,9.82295 13.17711,0 20.8438,-9.82295 7.72659,-9.82294 7.72659,-26.713611 0,-16.950567 -7.72659,-26.77351 -7.66669,-9.822943 -20.8438,-9.822943 z m 0,-9.822944 q 18.80734,0 30.06779,12.638056 11.26044,12.578159 11.26044,33.781341 0,21.143291 -11.26044,33.781341 -11.26045,12.57816 -30.06779,12.57816 -18.86724,0 -30.18759,-12.57816 -11.26044,-12.57816 -11.26044,-33.781341 0,-21.203182 11.26044,-33.781341 11.32035,-12.638056 30.18759,-12.638056 z"
       id="path17503"
       style="fill:#f6f1ef;fill-opacity:1" />
  </g>
  <path
     d="M15.5243 36.9523C15.6071 44.0903 15.6711 44.7663 16.4187 46.4001C17.1318 47.9586 18.864 49.8705 20.3937 50.7876C21.8956 51.6878 23.3652 52.0857 25.2369 52.0988C25.2869 52.0991 25.3362 52.0993 25.3848 52.0994C25.4334 52.0993 25.4827 52.0991 25.5327 52.0988C27.4044 52.0857 28.8741 51.6878 30.3759 50.7876C31.9056 49.8705 33.6378 47.9586 34.3509 46.4001C35.0985 44.7663 35.1625 44.0903 35.2453 36.9523V27.7665C35.2453 26.9939 34.4065 26.5132 33.7398 26.9037L31.5187 28.2048C31.2124 28.3843 31.0241 28.7127 31.0241 29.0677V37.8699C30.9308 44.109 30.9334 44.0891 30.0303 45.4343C28.9711 47.0118 27.2036 47.9109 25.3848 47.9059C23.5661 47.9109 21.7985 47.0118 20.7394 45.4343C19.8362 44.0891 19.8388 44.109 19.7455 37.8699V29.2494C19.7455 28.8944 19.5573 28.566 19.2509 28.3866L17.0298 27.0854C16.3631 26.6949 15.5243 27.1757 15.5243 27.9483V36.9523Z"
     fill="#F6F1EF"
     id="path18587" />
  <path
     d="M9.24812 22.5801C8.58523 22.1949 7.75416 22.6659 7.74897 23.4326C7.73456 25.563 7.71644 29.3828 7.73685 33.1904C7.78543 42.2256 7.82652 43.7994 8.04886 45.1381C8.68713 48.9795 10.2341 51.9575 13.0465 54.7588C16.406 58.1049 20.8677 59.9168 25.3848 59.9308C29.9019 59.9168 34.3636 58.1049 37.7231 54.7588C40.5355 51.9575 42.0825 48.9795 42.7208 45.1381C42.9431 43.7994 42.9842 42.2256 43.0328 33.1904C43.0532 29.3828 43.0351 25.563 43.0207 23.4326C43.0155 22.6659 42.1844 22.1949 41.5215 22.5801L39.1655 23.9494C38.8575 24.1284 38.6679 24.4578 38.6679 24.814V33.9679C38.6679 44.3951 38.628 45.0021 37.8025 47.1293C37.5727 47.7215 36.9981 48.7876 36.5258 49.4986C34.5897 52.4126 31.8545 54.4142 28.6147 55.2877C27.7822 55.5122 26.5843 55.6248 25.3848 55.6254C24.1853 55.6248 22.9874 55.5122 22.1549 55.2877C18.9151 54.4142 16.1799 52.4126 14.2438 49.4986C13.7716 48.7876 13.197 47.7215 12.9671 47.1293C12.1416 45.0021 12.1017 44.3951 12.1017 33.9679V24.814C12.1017 24.4578 11.9122 24.1284 11.6042 23.9494L9.24812 22.5801Z"
     fill="#F6F1EF"
     id="path18589" />
  <path
     d="M0.107577 30.3449C0.15909 45.6958 0.168188 46.1276 0.468463 47.4874C0.943091 49.6372 1.44575 51.0604 2.46457 53.1404C4.59512 57.4894 7.46475 60.7773 11.4464 63.4311C15.7492 66.2989 20.5878 67.6865 25.3848 67.6841C30.1818 67.6865 35.0205 66.2989 39.3232 63.4311C43.3049 60.7773 46.1745 57.4894 48.3051 53.1404C49.3239 51.0604 49.8265 49.6372 50.3012 47.4874C50.6014 46.1276 50.6105 45.6958 50.6621 30.3448L50.6957 19.0047C50.6979 18.236 49.8682 17.7523 49.2004 18.133L46.9263 19.4296C46.6067 19.6118 46.4114 19.9522 46.4143 20.3201C46.4226 21.39 46.4327 24.2185 46.4074 31.196C46.3508 46.864 46.3907 46.057 45.5406 48.7293C45.0478 50.2791 43.354 53.5747 42.3304 54.9758C39.4512 58.9166 34.6108 61.9849 29.5624 63.0697C28.5138 63.295 26.9359 63.4137 25.3848 63.4204C23.8337 63.4137 22.2558 63.295 21.2072 63.0697C16.1588 61.985 11.3184 58.9166 8.43925 54.9758C7.41559 53.5747 5.72181 50.2791 5.22898 48.7293C4.37894 46.057 4.41885 46.864 4.3622 31.196C4.33695 24.2185 4.34702 21.39 4.35536 20.3201C4.35823 19.9522 4.16293 19.6117 3.84337 19.4296L1.57082 18.1339C0.902674 17.753 0.0724928 18.234 0.0753176 19.0031C0.0863391 22.0039 0.107576 28.0798 0.107577 30.3449Z"
     fill="#F6F1EF"
     id="path18591" />
  <path
     d="M4.92698 15.7318C5.10324 15.8334 5.32016 15.8337 5.49671 15.7327L25.2423 4.43418C25.3305 4.3837 25.4389 4.38382 25.527 4.43451L45.1643 15.732C45.3406 15.8335 45.5575 15.8336 45.734 15.7325L48.7466 14.0065C48.9383 13.8967 48.9385 13.6204 48.747 13.5103L25.6692 0.247467C25.493 0.146227 25.2764 0.146014 25.1 0.246906L1.92428 13.5053C1.73261 13.615 1.73219 13.8913 1.92353 14.0015L4.92698 15.7318Z"
     fill="#A89D9D"
     id="path18593" />
  <path
     d="M12.4995 20.0242C12.6754 20.1256 12.8919 20.1261 13.0684 20.0255L25.2438 13.0868C25.3316 13.0368 25.4394 13.0368 25.5272 13.0869L37.6763 20.0198C37.8524 20.1202 38.0684 20.1201 38.2443 20.0193L41.2566 18.2935C41.4486 18.1835 41.4484 17.9065 41.2563 17.7968L25.669 8.89922C25.4933 8.79894 25.2777 8.79889 25.1019 8.8991L9.49726 17.7976C9.30528 17.9071 9.30467 18.1836 9.49616 18.2939L12.4995 20.0242Z"
     fill="#A89D9D"
     id="path18595" />
  <path
     d="M19.7558 24.2048C19.9312 24.3059 20.1469 24.3067 20.3231 24.2071L25.2439 21.4238C25.3314 21.3743 25.4384 21.3744 25.5258 21.424L30.4217 24.201C30.5975 24.3008 30.8129 24.3003 30.9883 24.1998L34.0008 22.4739C34.1929 22.3638 34.1925 22.0866 34.0001 21.9771L25.6676 17.2362C25.4923 17.1365 25.2775 17.1364 25.1021 17.236L16.7538 21.9779C16.5614 22.0871 16.5606 22.364 16.7523 22.4744L19.7558 24.2048Z"
     fill="#A89D9D"
     id="path18597" />
</svg>
