<?xml version="1.0" encoding="UTF-8" standalone="no"?>
<svg
   width="164"
   height="68"
   viewBox="0 0 164 68"
   fill="none"
   version="1.1"
   id="svg18599"
   sodipodi:docname="footer-logo.svg"
   inkscape:version="1.1.2 (0a00cf5, 2022-02-04)"
   xmlns:inkscape="http://www.inkscape.org/namespaces/inkscape"
   xmlns:sodipodi="http://sodipodi.sourceforge.net/DTD/sodipodi-0.dtd"
   xmlns="http://www.w3.org/2000/svg"
   xmlns:svg="http://www.w3.org/2000/svg">
  <defs
     id="defs18603" />
  <sodipodi:namedview
     id="namedview18601"
     pagecolor="#ffffff"
     bordercolor="#666666"
     borderopacity="1.0"
     inkscape:pageshadow="2"
     inkscape:pageopacity="0.0"
     inkscape:pagecheckerboard="0"
     showgrid="false"
     inkscape:zoom="1.9261486"
     inkscape:cx="59.185463"
     inkscape:cy="-9.6046585"
     inkscape:window-width="1488"
     inkscape:window-height="832"
     inkscape:window-x="0"
     inkscape:window-y="0"
     inkscape:window-maximized="1"
     inkscape:current-layer="svg18599" />
  <path
     d="M87.9244 35.7855H94.3654V59.641H87.9244V50.6782H80.8359V59.641H74.429V35.7855H80.8359V44.5098H87.9244V35.7855Z"
     fill="#F6F1EF"
     id="path18579" />
  <path
     d="M111.43 35.7855L120.12 58.9254V59.641H113.475L112.35 55.9605H104.648L103.455 59.641H96.8779V58.9254L105.534 35.7855H111.43ZM110.85 50.8826L108.499 44.1349L106.148 50.8826H110.85Z"
     fill="#F6F1EF"
     id="path18581" />
  <path
     d="M131.232 60.0159C129.733 60.0159 128.369 59.8114 127.143 59.4025C125.938 58.9708 124.905 58.3687 124.041 57.5963C123.178 56.8238 122.508 55.8809 122.031 54.7677C121.576 53.6544 121.349 52.4049 121.349 51.019V35.7855H127.79V49.9625C127.79 51.2802 128.085 52.2685 128.676 52.9274C129.29 53.5635 130.142 53.8816 131.232 53.8816C132.3 53.8816 133.129 53.5635 133.72 52.9274C134.311 52.2685 134.606 51.2802 134.606 49.9625V35.7855H141.047V51.019C141.047 52.4049 140.808 53.6544 140.331 54.7677C139.877 55.8582 139.218 56.8011 138.355 57.5963C137.491 58.3687 136.458 58.9708 135.253 59.4025C134.049 59.8114 132.709 60.0159 131.232 60.0159Z"
     fill="#F6F1EF"
     id="path18583" />
  <path
     d="M153.731 59.9818C152.3 59.9818 151.005 59.8114 149.846 59.4706C148.71 59.1071 147.722 58.5846 146.881 57.903C146.063 57.2214 145.416 56.3808 144.939 55.3811C144.484 54.3587 144.223 53.2 144.155 51.905H150.459C150.596 53.5181 151.686 54.3247 153.731 54.3247C154.663 54.3247 155.378 54.1656 155.878 53.8475C156.401 53.5067 156.662 53.0637 156.662 52.5185C156.662 51.905 156.344 51.4166 155.708 51.053C155.094 50.6895 154.049 50.3942 152.572 50.167C151.368 49.9852 150.266 49.7239 149.267 49.3831C148.267 49.0196 147.404 48.5652 146.677 48.02C145.972 47.452 145.416 46.759 145.007 45.9411C144.621 45.1005 144.427 44.1122 144.427 42.9762C144.427 41.7721 144.655 40.7043 145.109 39.7728C145.563 38.8413 146.188 38.0574 146.983 37.4213C147.801 36.7624 148.767 36.2626 149.88 35.9218C150.993 35.581 152.209 35.4106 153.527 35.4106C154.844 35.4106 156.037 35.5924 157.105 35.9559C158.195 36.3194 159.127 36.8306 159.899 37.4895C160.695 38.1483 161.319 38.9549 161.774 39.9091C162.251 40.8633 162.535 41.9425 162.626 43.1466H156.423C156.219 41.7153 155.231 40.9996 153.458 40.9996C152.595 40.9996 151.925 41.1587 151.448 41.4767C150.971 41.7721 150.732 42.2151 150.732 42.8058C150.732 43.3965 151.016 43.8396 151.584 44.1349C152.175 44.4303 153.22 44.7029 154.719 44.9528C155.969 45.1346 157.105 45.4072 158.127 45.7707C159.15 46.1343 160.024 46.6114 160.751 47.2021C161.501 47.7928 162.069 48.5084 162.455 49.3491C162.864 50.1897 163.069 51.178 163.069 52.314C163.069 53.5636 162.83 54.6655 162.353 55.6197C161.899 56.5739 161.251 57.3804 160.411 58.0393C159.57 58.6755 158.582 59.1639 157.446 59.5047C156.31 59.8228 155.072 59.9818 153.731 59.9818Z"
     fill="#F6F1EF"
     id="path18585" />
  <path
     d="M15.5243 36.9523C15.6071 44.0903 15.6711 44.7663 16.4187 46.4001C17.1318 47.9586 18.864 49.8705 20.3937 50.7876C21.8956 51.6878 23.3652 52.0857 25.2369 52.0988C25.2869 52.0991 25.3362 52.0993 25.3848 52.0994C25.4334 52.0993 25.4827 52.0991 25.5327 52.0988C27.4044 52.0857 28.8741 51.6878 30.3759 50.7876C31.9056 49.8705 33.6378 47.9586 34.3509 46.4001C35.0985 44.7663 35.1625 44.0903 35.2453 36.9523V27.7665C35.2453 26.9939 34.4065 26.5132 33.7398 26.9037L31.5187 28.2048C31.2124 28.3843 31.0241 28.7127 31.0241 29.0677V37.8699C30.9308 44.109 30.9334 44.0891 30.0303 45.4343C28.9711 47.0118 27.2036 47.9109 25.3848 47.9059C23.5661 47.9109 21.7985 47.0118 20.7394 45.4343C19.8362 44.0891 19.8388 44.109 19.7455 37.8699V29.2494C19.7455 28.8944 19.5573 28.566 19.2509 28.3866L17.0298 27.0854C16.3631 26.6949 15.5243 27.1757 15.5243 27.9483V36.9523Z"
     fill="#F6F1EF"
     id="path18587" />
  <path
     d="M9.24812 22.5801C8.58523 22.1949 7.75416 22.6659 7.74897 23.4326C7.73456 25.563 7.71644 29.3828 7.73685 33.1904C7.78543 42.2256 7.82652 43.7994 8.04886 45.1381C8.68713 48.9795 10.2341 51.9575 13.0465 54.7588C16.406 58.1049 20.8677 59.9168 25.3848 59.9308C29.9019 59.9168 34.3636 58.1049 37.7231 54.7588C40.5355 51.9575 42.0825 48.9795 42.7208 45.1381C42.9431 43.7994 42.9842 42.2256 43.0328 33.1904C43.0532 29.3828 43.0351 25.563 43.0207 23.4326C43.0155 22.6659 42.1844 22.1949 41.5215 22.5801L39.1655 23.9494C38.8575 24.1284 38.6679 24.4578 38.6679 24.814V33.9679C38.6679 44.3951 38.628 45.0021 37.8025 47.1293C37.5727 47.7215 36.9981 48.7876 36.5258 49.4986C34.5897 52.4126 31.8545 54.4142 28.6147 55.2877C27.7822 55.5122 26.5843 55.6248 25.3848 55.6254C24.1853 55.6248 22.9874 55.5122 22.1549 55.2877C18.9151 54.4142 16.1799 52.4126 14.2438 49.4986C13.7716 48.7876 13.197 47.7215 12.9671 47.1293C12.1416 45.0021 12.1017 44.3951 12.1017 33.9679V24.814C12.1017 24.4578 11.9122 24.1284 11.6042 23.9494L9.24812 22.5801Z"
     fill="#F6F1EF"
     id="path18589" />
  <path
     d="M0.107577 30.3449C0.15909 45.6958 0.168188 46.1276 0.468463 47.4874C0.943091 49.6372 1.44575 51.0604 2.46457 53.1404C4.59512 57.4894 7.46475 60.7773 11.4464 63.4311C15.7492 66.2989 20.5878 67.6865 25.3848 67.6841C30.1818 67.6865 35.0205 66.2989 39.3232 63.4311C43.3049 60.7773 46.1745 57.4894 48.3051 53.1404C49.3239 51.0604 49.8265 49.6372 50.3012 47.4874C50.6014 46.1276 50.6105 45.6958 50.6621 30.3448L50.6957 19.0047C50.6979 18.236 49.8682 17.7523 49.2004 18.133L46.9263 19.4296C46.6067 19.6118 46.4114 19.9522 46.4143 20.3201C46.4226 21.39 46.4327 24.2185 46.4074 31.196C46.3508 46.864 46.3907 46.057 45.5406 48.7293C45.0478 50.2791 43.354 53.5747 42.3304 54.9758C39.4512 58.9166 34.6108 61.9849 29.5624 63.0697C28.5138 63.295 26.9359 63.4137 25.3848 63.4204C23.8337 63.4137 22.2558 63.295 21.2072 63.0697C16.1588 61.985 11.3184 58.9166 8.43925 54.9758C7.41559 53.5747 5.72181 50.2791 5.22898 48.7293C4.37894 46.057 4.41885 46.864 4.3622 31.196C4.33695 24.2185 4.34702 21.39 4.35536 20.3201C4.35823 19.9522 4.16293 19.6117 3.84337 19.4296L1.57082 18.1339C0.902674 17.753 0.0724928 18.234 0.0753176 19.0031C0.0863391 22.0039 0.107576 28.0798 0.107577 30.3449Z"
     fill="#F6F1EF"
     id="path18591" />
  <path
     d="M4.92698 15.7318C5.10324 15.8334 5.32016 15.8337 5.49671 15.7327L25.2423 4.43418C25.3305 4.3837 25.4389 4.38382 25.527 4.43451L45.1643 15.732C45.3406 15.8335 45.5575 15.8336 45.734 15.7325L48.7466 14.0065C48.9383 13.8967 48.9385 13.6204 48.747 13.5103L25.6692 0.247467C25.493 0.146227 25.2764 0.146014 25.1 0.246906L1.92428 13.5053C1.73261 13.615 1.73219 13.8913 1.92353 14.0015L4.92698 15.7318Z"
     fill="#A89D9D"
     id="path18593" />
  <path
     d="M12.4995 20.0242C12.6754 20.1256 12.8919 20.1261 13.0684 20.0255L25.2438 13.0868C25.3316 13.0368 25.4394 13.0368 25.5272 13.0869L37.6763 20.0198C37.8524 20.1202 38.0684 20.1201 38.2443 20.0193L41.2566 18.2935C41.4486 18.1835 41.4484 17.9065 41.2563 17.7968L25.669 8.89922C25.4933 8.79894 25.2777 8.79889 25.1019 8.8991L9.49726 17.7976C9.30528 17.9071 9.30467 18.1836 9.49616 18.2939L12.4995 20.0242Z"
     fill="#A89D9D"
     id="path18595" />
  <path
     d="M19.7558 24.2048C19.9312 24.3059 20.1469 24.3067 20.3231 24.2071L25.2439 21.4238C25.3314 21.3743 25.4384 21.3744 25.5258 21.424L30.4217 24.201C30.5975 24.3008 30.8129 24.3003 30.9883 24.1998L34.0008 22.4739C34.1929 22.3638 34.1925 22.0866 34.0001 21.9771L25.6676 17.2362C25.4923 17.1365 25.2775 17.1364 25.1021 17.236L16.7538 21.9779C16.5614 22.0871 16.5606 22.364 16.7523 22.4744L19.7558 24.2048Z"
     fill="#A89D9D"
     id="path18597" />
  <g
     id="g39119"
     transform="matrix(1.0556843,0,0,1.0556843,18.760952,37.866552)">
    <path
       d="m 74.488876,-9.7980035 c -1.082858,0 -2.515131,-0.1597843 -3.402657,-0.4792735 -0.887601,-0.319568 -1.642062,-0.772198 -2.263383,-1.358046 -0.621321,-0.603585 -1.109502,-1.331402 -1.464542,-2.183452 -0.337226,-0.85205 -0.505917,-1.801769 -0.505917,-2.849153 v -11.982383 h 3.142077 v 11.63625 c 0,1.313587 0.36387,2.334329 1.091765,3.062146 0.727818,0.710081 2.160015,1.065122 3.402657,1.065122 1.242564,0 2.674837,-0.355041 3.402654,-1.065122 0.727818,-0.727817 1.091688,-1.748559 1.091688,-3.062146 v -11.63625 h 3.142077 v 11.982383 c 0,1.047385 -0.17752,1.997103 -0.532561,2.849153 -0.337304,0.852051 -0.825407,1.579868 -1.464464,2.183453 -0.621321,0.585848 -1.375782,1.038478 -2.263383,1.358045 -0.869865,0.3194892 -2.293153,0.4792735 -3.376011,0.4792735 z"
       fill="#f6f1ef"
       id="path18571-5"
       style="stroke-width:0.781339" />
    <path
       id="path18573-3"
       d="m 52.76279,-28.540868 -0.03107,18.6334215 2.896562,-0.00805 0.19577,-8.2405825 h 4.109661 c 1.018646,-0.121112 1.421304,-0.258726 2.191619,-0.556683 0.326275,-0.121998 1.147658,-0.58049 1.684893,-1.088787 0.606487,-0.573819 0.786817,-1.125236 0.975523,-1.526377 0.301597,-0.656793 0.411322,-1.541415 0.411322,-2.340256 0,-0.727817 -0.131863,-1.394097 -0.3983,-1.997604 -0.248466,-0.603584 -0.603413,-1.118356 -1.065185,-1.544365 -0.4438,-0.426041 -0.986111,-0.753536 -1.625246,-0.984305 -0.639136,-0.230777 -1.339533,-0.346413 -2.102901,-0.346413 z m 3.061263,2.928496 h 3.860914 c 0.745398,0 1.324211,0.205145 1.73207,0.613473 0.42583,0.390513 0.63789,0.949236 0.63789,1.677132 0,0.727817 -0.195334,1.30448 -0.586004,1.730544 -0.372699,0.408328 -0.939707,0.611947 -1.703075,0.611947 h -3.941795 z"
       sodipodi:nodetypes="ccccccscsccssccscscscc"
       style="fill:#f6f1ef;fill-opacity:1;stroke-width:0.781339" />
    <path
       id="path18575-6"
       d="m 97.474149,-28.543764 v 18.6392128 h 13.206461 v -3.0078508 h -10.09026 v -4.926099 -2.955965 -4.765864 -2.983434 z"
       style="fill:#f6f1ef;fill-opacity:1;stroke-width:0.781339" />
    <path
       id="path18575-7"
       style="fill:#f6f1ef;fill-opacity:1;stroke-width:0.781339"
       d="m 111.43666,-28.543764 v 2.983434 h 3.11466 1.92894 v 12.657084 h -5.0436 v 2.9986948 h 13.20493 v -3.0078508 h -0.0488 v 0.0092 h -4.99477 v -0.0351 -4.874213 -2.923918 -4.715504 -0.10835 h 4.85743 v -2.983434 z" />
    <path
       id="path18571-5-1"
       style="fill:#f6f1ef;fill-opacity:1;stroke-width:0.781339"
       d="m 135.97236,-28.443242 -4.27142,0.03968 c -1.04734,0.0097 -1.99567,0.187487 -2.84456,0.532592 -0.84873,0.362918 -1.57225,0.857964 -2.17005,1.48485 -0.58007,0.626721 -1.0255,1.384822 -1.33682,2.275345 -0.29745,0.850922 -0.44193,2.195231 -0.44561,3.258123 v 3.593856 h 0.006 c 0.0369,1.030867 0.20565,2.267587 0.50206,3.052106 0.32777,0.884602 0.78798,1.63506 1.37956,2.250928 0.60947,0.633438 1.34238,1.11425 2.19752,1.443646 0.8553,0.347133 1.80637,0.5163543 2.85371,0.50665 l 4.1295,-0.03815 v -3.142144 l -3.81208,0.0351 c -1.31353,0.01217 -2.33894,-0.342615 -3.07347,-1.063659 -0.6509,-0.654907 -1.01064,-1.891962 -1.08044,-3.044475 v -3.593856 c -0.0234,-0.833664 0.31129,-2.514109 1.01787,-3.291696 0.72105,-0.734607 1.73858,-1.107958 3.05211,-1.120123 l 3.89601,-0.03662 z"
       sodipodi:nodetypes="cccccccccccccccccccccc" />
    <path
       d="m 94.418886,-19.83661 c 0.79931,0.426064 1.420474,1.038478 1.864275,1.837319 0.443801,0.798841 0.665701,1.704179 0.665701,2.716013 0,0.816578 -0.133609,1.553303 -0.399264,2.210096 -0.266437,0.656794 -0.648512,1.224906 -1.145443,1.704179 -0.496932,0.461537 -1.091531,0.825407 -1.783798,1.091687 -0.674296,0.248544 -1.429069,0.3727769 -2.263539,0.3727769 H 83.687973 V -28.543776 h 7.243015 c 0.763368,0 1.464229,0.11538 2.103365,0.346157 0.639135,0.230768 1.180603,0.559181 1.624404,0.985221 0.461771,0.42601 0.816499,0.940834 1.064965,1.544419 0.266437,0.603507 0.399265,1.269208 0.399265,1.997025 0,0.798841 -0.150799,1.526659 -0.452396,2.183452 -0.283626,0.639058 -0.700861,1.189355 -1.251705,1.650892 z m -7.668844,-5.77816 v 4.633186 h 3.941075 c 0.763368,0 1.331402,-0.204086 1.7041,-0.612414 0.39067,-0.426064 0.586005,-1.002927 0.586005,-1.730745 0,-0.727895 -0.213306,-1.287021 -0.639136,-1.677535 -0.407859,-0.408328 -0.985268,-0.612492 -1.730666,-0.612492 z m 4.340339,12.754581 c 0.83447,0 1.491576,-0.2219 1.970537,-0.665622 0.479743,-0.461616 0.718832,-1.127239 0.718832,-1.997103 0,-0.834314 -0.230495,-1.482279 -0.692266,-1.943816 -0.46099,-0.461537 -1.109502,-0.692345 -1.943191,-0.692345 h -4.394251 v 5.298886 z"
       fill="#f6f1ef"
       id="path18573-2"
       style="stroke-width:0.781339" />
  </g>
</svg>
