<?xml version="1.0" encoding="UTF-8" standalone="no"?>
<svg
   width="891"
   height="196"
   viewBox="0 0 891 196"
   fill="none"
   version="1.1"
   id="svg91"
   sodipodi:docname="hausdao-logo-extended-white.svg"
   inkscape:version="1.1.2 (0a00cf5, 2022-02-04)"
   xmlns:inkscape="http://www.inkscape.org/namespaces/inkscape"
   xmlns:sodipodi="http://sodipodi.sourceforge.net/DTD/sodipodi-0.dtd"
   xmlns="http://www.w3.org/2000/svg"
   xmlns:svg="http://www.w3.org/2000/svg">
  <defs
     id="defs95" />
  <sodipodi:namedview
     id="namedview93"
     pagecolor="#ffffff"
     bordercolor="#666666"
     borderopacity="1.0"
     inkscape:pageshadow="2"
     inkscape:pageopacity="0.0"
     inkscape:pagecheckerboard="0"
     showgrid="false"
     inkscape:zoom="0.75471856"
     inkscape:cx="190.7996"
     inkscape:cy="-100.03729"
     inkscape:window-width="1488"
     inkscape:window-height="832"
     inkscape:window-x="0"
     inkscape:window-y="0"
     inkscape:window-maximized="1"
     inkscape:current-layer="svg91" />
  <path
     d="m 251.928,51.7309 h 24.784 v 91.7911 h -24.784 v -34.487 h -27.275 v 34.487 H 200 V 51.7309 h 24.653 v 33.5694 h 27.275 z m 90.444,0 33.438,89.0381 v 2.753 h -25.57 l -4.327,-14.162 h -29.636 l -4.589,14.162 h -25.309 v -2.753 l 33.307,-89.0381 z m -2.229,58.0911 -9.048,-25.9641 -9.048,25.9641 z m 78.424,35.143 c -5.77,0 -11.015,-0.787 -15.736,-2.361 -4.633,-1.661 -8.61,-3.977 -11.932,-6.95 -3.322,-2.972 -5.901,-6.6 -7.737,-10.883 -1.749,-4.284 -2.623,-9.092 -2.623,-14.425 V 51.7309 h 24.784 v 54.5501 c 0,5.071 1.136,8.873 3.409,11.409 2.361,2.447 5.639,3.671 9.835,3.671 4.109,0 7.3,-1.224 9.573,-3.671 2.273,-2.536 3.409,-6.338 3.409,-11.409 V 51.7309 h 24.784 v 58.6151 c 0,5.333 -0.918,10.141 -2.754,14.425 -1.748,4.196 -4.284,7.824 -7.606,10.883 -3.322,2.973 -7.299,5.289 -11.933,6.95 -4.633,1.574 -9.791,2.361 -15.473,2.361 z m 86.572,-0.131 c -5.508,0 -10.491,-0.656 -14.949,-1.967 -4.371,-1.399 -8.174,-3.41 -11.408,-6.032 -3.148,-2.623 -5.639,-5.858 -7.475,-9.704 -1.748,-3.934 -2.754,-8.392 -3.016,-13.375 h 24.259 c 0.525,6.206 4.721,9.31 12.589,9.31 3.584,0 6.338,-0.612 8.261,-1.836 2.011,-1.311 3.016,-3.016 3.016,-5.114 0,-2.36 -1.224,-4.24 -3.672,-5.639 -2.36,-1.398 -6.381,-2.535 -12.064,-3.409 -4.633,-0.699 -8.873,-1.705 -12.719,-3.016 -3.847,-1.399 -7.169,-3.147 -9.966,-5.2453 -2.71,-2.1855 -4.852,-4.8518 -6.426,-7.9989 -1.486,-3.2346 -2.229,-7.0374 -2.229,-11.4084 0,-4.6333 0.874,-8.742 2.623,-12.3263 1.748,-3.5842 4.152,-6.6002 7.212,-9.048 3.147,-2.5352 6.863,-4.4584 11.146,-5.7697 4.284,-1.3113 8.961,-1.967 14.031,-1.967 5.07,0 9.66,0.6994 13.769,2.0981 4.196,1.3987 7.78,3.3657 10.752,5.9009 3.06,2.5352 5.464,5.6386 7.213,9.3103 1.835,3.6716 2.928,7.8241 3.278,12.4574 h -23.866 c -0.787,-5.5075 -4.589,-8.2613 -11.408,-8.2613 -3.322,0 -5.901,0.612 -7.737,1.8359 -1.836,1.1364 -2.754,2.8411 -2.754,5.1141 0,2.2729 1.093,3.9776 3.279,5.1141 2.273,1.1364 6.294,2.1855 12.064,3.1471 4.808,0.6993 9.179,1.7484 13.113,3.1471 3.934,1.3987 7.299,3.2346 10.097,5.5075 2.885,2.2729 5.07,5.0264 6.556,8.2614 1.574,3.234 2.361,7.037 2.361,11.408 0,4.808 -0.918,9.048 -2.754,12.72 -1.749,3.671 -4.24,6.775 -7.475,9.31 -3.234,2.448 -7.037,4.327 -11.408,5.639 -4.371,1.224 -9.135,1.836 -14.293,1.836 z"
     fill="#ffffff"
     id="path77"
     sodipodi:nodetypes="ccccccccccccccccccccccccccccscccsccscscsccscccsscccccscscccccscccscccccscsccsccscccs" />
  <path
     d="M44.5269 107.07C44.7653 127.631 44.9497 129.579 47.1032 134.285C49.1574 138.774 54.1472 144.282 58.5536 146.923C62.8797 149.517 67.1131 150.663 72.5045 150.7C72.6486 150.701 72.7906 150.702 72.9307 150.702C73.0708 150.702 73.2128 150.701 73.3568 150.7C78.7483 150.663 82.9817 149.517 87.3078 146.923C91.7142 144.282 96.704 138.774 98.7582 134.285C100.912 129.579 101.096 127.631 101.334 107.07V77.4466C101.334 76.6217 100.439 76.1085 99.7272 76.5254L89.7031 82.3975C89.3761 82.589 89.1751 82.9396 89.1751 83.3186V109.713C88.9063 127.685 88.9139 127.628 86.3122 131.503C83.2612 136.047 78.1697 138.637 72.9307 138.623C67.6917 138.637 62.6001 136.047 59.5492 131.503C56.9475 127.628 56.9551 127.685 56.6862 109.713V83.8422C56.6862 83.4631 56.4853 83.1125 56.1583 82.921L46.1341 77.0489C45.4224 76.632 44.5269 77.1452 44.5269 77.9701V107.07Z"
     fill="white"
     id="path79" />
  <path
     d="M23.7545 64.1047C23.0468 63.6933 22.1592 64.1899 22.1526 65.0085C22.114 69.7517 22.0237 83.0179 22.0945 96.2336C22.2345 122.26 22.3528 126.794 22.9933 130.65C24.8319 141.715 29.2882 150.293 37.3895 158.363C47.0667 168.001 59.9189 173.221 72.9307 173.261C85.9425 173.221 98.7947 168.001 108.472 158.363C116.573 150.293 121.029 141.715 122.868 130.65C123.509 126.794 123.627 122.26 123.767 96.2336C123.838 83.0179 123.747 69.7516 123.709 65.0084C123.702 64.1899 122.815 63.6933 122.107 64.1046L111.725 70.1384C111.396 70.3295 111.194 70.6812 111.194 71.0615V98.4732C111.194 128.509 111.079 130.258 108.701 136.385C108.039 138.091 106.383 141.162 105.023 143.21C99.446 151.604 91.5671 157.37 82.2347 159.886C79.8366 160.533 76.3859 160.857 72.9307 160.859C69.4755 160.857 66.0248 160.533 63.6267 159.886C54.2943 157.37 46.4154 151.604 40.8383 143.21C39.4779 141.162 37.8228 138.091 37.1608 136.385C34.7828 130.258 34.6678 128.51 34.6678 98.4732V71.0615C34.6678 70.6812 34.4654 70.3296 34.1366 70.1385L23.7545 64.1047Z"
     fill="white"
     id="path81" />
  <path
     d="M0.117909 88.0367C0.266297 132.256 0.292506 133.5 1.15747 137.417C2.52467 143.609 3.97261 147.709 6.90739 153.701C13.0446 166.228 21.3107 175.699 32.7802 183.344C45.1745 191.605 59.1127 195.602 72.9307 195.595C86.7487 195.602 100.687 191.605 113.081 183.344C124.551 175.699 132.817 166.228 138.954 153.701C141.889 147.709 143.337 143.609 144.704 137.417C145.569 133.5 145.595 132.256 145.743 88.0367L145.85 52.2395C145.852 51.4188 144.966 50.9024 144.253 51.3088L134.042 57.1307C133.7 57.3253 133.493 57.6874 133.497 58.0801C133.52 60.0379 133.572 67.3298 133.488 90.4886C133.325 135.621 133.44 133.297 130.991 140.994C129.571 145.459 124.692 154.952 121.744 158.988C113.45 170.34 99.5069 179.178 84.9645 182.303C81.9439 182.952 77.3987 183.294 72.9307 183.313C68.4626 183.294 63.9174 182.952 60.8969 182.303C46.3545 179.178 32.4115 170.34 24.1179 158.988C21.1691 154.952 16.2901 145.459 14.8705 140.994C12.4218 133.297 12.5368 135.621 12.3736 90.4886C12.2898 67.3297 12.3411 60.0378 12.3642 58.08C12.3688 57.6873 12.1609 57.3252 11.8197 57.1307L1.60986 51.3098C0.896544 50.9031 0.010251 51.4136 0.0133431 52.2347C0.0377862 58.7253 0.117906 80.5697 0.117909 88.0367Z"
     fill="white"
     id="path83" />
  <path
     d="M13.7581 45.8031C14.416 46.1821 15.2255 46.1833 15.8845 45.8062L72.3989 13.4685C72.7282 13.2801 73.1327 13.2806 73.4615 13.4698L129.664 45.8038C130.322 46.1824 131.132 46.1831 131.791 45.8057L139.858 41.1839C140.573 40.7741 140.574 39.7427 139.859 39.332L73.9921 1.4782C73.3346 1.10035 72.526 1.09955 71.8678 1.4761L5.71938 39.3185C5.004 39.7277 5.00244 40.7588 5.71657 41.1702L13.7581 45.8031Z"
     fill="white"
     id="path85" />
  <path
     d="M35.572 58.1676C36.2287 58.5459 37.0367 58.5478 37.6952 58.1726L72.404 38.3922C72.7318 38.2054 73.134 38.2055 73.4617 38.3925L108.096 58.1562C108.753 58.5311 109.559 58.5304 110.215 58.1544L118.281 53.5332C118.998 53.1227 118.997 52.0891 118.28 51.6797L73.9909 26.3985C73.3352 26.0242 72.5306 26.024 71.8747 26.3981L27.535 51.6825C26.8185 52.0911 26.8162 53.1233 27.5309 53.535L35.572 58.1676Z"
     fill="white"
     id="path87" />
  <path
     d="M56.4747 70.2108C57.1292 70.5879 57.9343 70.5911 58.5918 70.2192L72.4043 62.4067C72.7309 62.222 73.1304 62.2222 73.4567 62.4073L87.1978 70.2016C87.854 70.5739 88.658 70.5721 89.3127 70.1971L97.3792 65.5757C98.0962 65.1648 98.0947 64.1301 97.3764 63.7214L73.9857 50.4131C73.3315 50.0409 72.5297 50.0406 71.8752 50.4123L48.4385 63.7244C47.7205 64.1321 47.7174 65.1656 48.4328 65.5778L56.4747 70.2108Z"
     fill="white"
     id="path89" />
  <g
     aria-label="DAO"
     id="text4429"
     style="font-size:122.667px;line-height:1.25;fill:#ffffff">
    <path
       d="m 571.38082,61.83944 v 69.53925 h 14.61463 q 18.50786,0 27.07299,-8.38544 8.62502,-8.38544 8.62502,-26.474029 0,-17.968798 -8.62502,-26.294342 -8.56513,-8.385439 -27.07299,-8.385439 z m -12.09899,-9.942736 h 24.85684 q 25.99486,0 38.15375,10.841176 12.15889,10.781279 12.15889,33.781341 0,23.119859 -12.21879,33.961029 -12.21878,10.84118 -38.09385,10.84118 h -24.85684 z"
       id="path17499" />
    <path
       d="m 677.46966,63.816008 -16.4115,44.502722 h 32.8829 z m -6.82814,-11.919304 h 13.71618 l 33.14152,86.960096 0.0585,2.33043 -11.6974,0.1342 -8.14585,-22.94017 H 657.4045 l -8.14585,22.94017 h -11.76713 l 0.14997,-3.01234 z"
       id="path17501"
       sodipodi:nodetypes="ccccccccccccccc" />
    <path
       d="m 761.63658,60.102456 q -13.17712,0 -20.9636,9.822943 -7.72659,9.822943 -7.72659,26.77351 0,16.890671 7.72659,26.713611 7.78648,9.82295 20.9636,9.82295 13.17711,0 20.8438,-9.82295 7.72659,-9.82294 7.72659,-26.713611 0,-16.950567 -7.72659,-26.77351 -7.66669,-9.822943 -20.8438,-9.822943 z m 0,-9.822944 q 18.80734,0 30.06779,12.638056 11.26044,12.578159 11.26044,33.781341 0,21.143291 -11.26044,33.781341 -11.26045,12.57816 -30.06779,12.57816 -18.86724,0 -30.18759,-12.57816 -11.26044,-12.57816 -11.26044,-33.781341 0,-21.203182 11.26044,-33.781341 11.32035,-12.638056 30.18759,-12.638056 z"
       id="path17503" />
  </g>
</svg>
