<?xml version="1.0" encoding="UTF-8" standalone="no"?>
<svg
   width="960"
   height="196"
   viewBox="0 0 960 196"
   fill="none"
   version="1.1"
   id="svg39389"
   sodipodi:docname="publichaus-logo-extended-white.svg"
   inkscape:version="1.1.2 (0a00cf5, 2022-02-04)"
   xmlns:inkscape="http://www.inkscape.org/namespaces/inkscape"
   xmlns:sodipodi="http://sodipodi.sourceforge.net/DTD/sodipodi-0.dtd"
   xmlns="http://www.w3.org/2000/svg"
   xmlns:svg="http://www.w3.org/2000/svg">
  <defs
     id="defs39393" />
  <sodipodi:namedview
     id="namedview39391"
     pagecolor="#ffffff"
     bordercolor="#666666"
     borderopacity="1.0"
     inkscape:pageshadow="2"
     inkscape:pageopacity="0.0"
     inkscape:pagecheckerboard="0"
     showgrid="false"
     inkscape:zoom="0.57258678"
     inkscape:cx="423.51659"
     inkscape:cy="303.01084"
     inkscape:window-width="1488"
     inkscape:window-height="832"
     inkscape:window-x="0"
     inkscape:window-y="0"
     inkscape:window-maximized="1"
     inkscape:current-layer="svg39389"
     width="960px" />
  <path
     d="m 670.055,51.7309 h 24.784 V 143.522 H 670.055 V 109.035 H 642.78 v 34.487 H 618.127 V 51.7309 h 24.653 v 33.5694 h 27.275 z m 90.444,0 33.438,89.0381 v 2.753 h -25.57 L 764.04,129.36 h -29.636 l -4.589,14.162 h -25.309 v -2.753 l 33.307,-89.0381 z m -2.229,58.0911 -9.048,-25.9641 -9.048,25.9641 z m 78.424,35.143 c -5.77,0 -11.015,-0.787 -15.736,-2.361 -4.633,-1.661 -8.61,-3.977 -11.932,-6.95 -3.322,-2.972 -5.901,-6.6 -7.737,-10.883 -1.749,-4.284 -2.623,-9.092 -2.623,-14.425 V 51.7309 h 24.784 v 54.5501 c 0,5.071 1.136,8.873 3.409,11.409 2.361,2.447 5.639,3.671 9.835,3.671 4.109,0 7.3,-1.224 9.573,-3.671 2.273,-2.536 3.409,-6.338 3.409,-11.409 V 51.7309 h 24.784 v 58.6151 c 0,5.333 -0.918,10.141 -2.754,14.425 -1.748,4.196 -4.284,7.824 -7.606,10.883 -3.322,2.973 -7.299,5.289 -11.933,6.95 -4.633,1.574 -9.791,2.361 -15.473,2.361 z m 86.572,-0.131 c -5.508,0 -10.491,-0.656 -14.949,-1.967 -4.371,-1.399 -8.174,-3.41 -11.408,-6.032 -3.148,-2.623 -5.639,-5.858 -7.475,-9.704 -1.748,-3.934 -2.754,-8.392 -3.016,-13.375 h 24.259 c 0.525,6.206 4.721,9.31 12.589,9.31 3.584,0 6.338,-0.612 8.261,-1.836 2.011,-1.311 3.016,-3.016 3.016,-5.114 0,-2.36 -1.224,-4.24 -3.672,-5.639 -2.36,-1.398 -6.381,-2.535 -12.064,-3.409 -4.633,-0.699 -8.873,-1.705 -12.719,-3.016 -3.847,-1.399 -7.169,-3.147 -9.966,-5.2453 -2.71,-2.1855 -4.852,-4.8518 -6.426,-7.9989 -1.486,-3.2346 -2.229,-7.0374 -2.229,-11.4084 0,-4.6333 0.874,-8.742 2.623,-12.3263 1.748,-3.5842 4.152,-6.6002 7.212,-9.048 3.147,-2.5352 6.863,-4.4584 11.146,-5.7697 4.284,-1.3113 8.961,-1.967 14.031,-1.967 5.07,0 9.66,0.6994 13.769,2.0981 4.196,1.3987 7.78,3.3657 10.752,5.9009 3.06,2.5352 5.464,5.6386 7.213,9.3103 1.835,3.6716 2.928,7.8241 3.278,12.4574 h -23.866 c -0.787,-5.5075 -4.589,-8.2613 -11.408,-8.2613 -3.322,0 -5.901,0.612 -7.737,1.8359 -1.836,1.1364 -2.754,2.8411 -2.754,5.1141 0,2.2729 1.093,3.9776 3.279,5.1141 2.273,1.1364 6.294,2.1855 12.064,3.1471 4.808,0.6993 9.179,1.7484 13.113,3.1471 3.934,1.3987 7.299,3.2346 10.097,5.5075 2.885,2.2729 5.07,5.0264 6.556,8.2614 1.574,3.234 2.361,7.037 2.361,11.408 0,4.808 -0.918,9.048 -2.754,12.72 -1.749,3.671 -4.24,6.775 -7.475,9.31 -3.234,2.448 -7.037,4.327 -11.408,5.639 -4.371,1.224 -9.135,1.836 -14.293,1.836 z"
     fill="#ffffff"
     id="path39375"
     sodipodi:nodetypes="ccccccccccccccccccccccccccccscccsccscscsccscccsscccccscscccccscccscccccscsccsccscccs" />
  <path
     d="m 44.5269,107.07 c 0.2384,20.561 0.4228,22.509 2.5763,27.215 2.0542,4.489 7.044,9.997 11.4504,12.638 4.3261,2.594 8.5595,3.74 13.9509,3.777 0.1441,0.001 0.2861,0.002 0.4262,0.002 0.1401,0 0.2821,-0.001 0.4261,-0.002 5.3915,-0.037 9.6249,-1.183 13.951,-3.777 4.4064,-2.641 9.3962,-8.149 11.4504,-12.638 2.1538,-4.706 2.3378,-6.654 2.5758,-27.215 V 77.4466 c 0,-0.8249 -0.895,-1.3381 -1.6068,-0.9212 l -10.0241,5.8721 c -0.327,0.1915 -0.528,0.5421 -0.528,0.9211 v 26.3944 c -0.2688,17.972 -0.2612,17.915 -2.8629,21.79 -3.051,4.544 -8.1425,7.134 -13.3815,7.12 -5.239,0.014 -10.3306,-2.576 -13.3815,-7.12 -2.6017,-3.875 -2.5941,-3.818 -2.863,-21.79 V 83.8422 c 0,-0.3791 -0.2009,-0.7297 -0.5279,-0.9212 L 46.1341,77.0489 c -0.7117,-0.4169 -1.6072,0.0963 -1.6072,0.9212 z"
     fill="#ffffff"
     id="path39377" />
  <path
     d="m 23.7545,64.1047 c -0.7077,-0.4114 -1.5953,0.0852 -1.6019,0.9038 -0.0386,4.7432 -0.1289,18.0094 -0.0581,31.2251 0.14,26.0264 0.2583,30.5604 0.8988,34.4164 1.8386,11.065 6.2949,19.643 14.3962,27.713 9.6772,9.638 22.5294,14.858 35.5412,14.898 13.0118,-0.04 25.864,-5.26 35.5413,-14.898 8.101,-8.07 12.557,-16.648 14.396,-27.713 0.641,-3.856 0.759,-8.39 0.899,-34.4164 0.071,-13.2157 -0.02,-26.482 -0.058,-31.2252 -0.007,-0.8185 -0.894,-1.3151 -1.602,-0.9038 l -10.382,6.0338 c -0.329,0.1911 -0.531,0.5428 -0.531,0.9231 v 27.4117 c 0,30.0358 -0.115,31.7848 -2.493,37.9118 -0.662,1.706 -2.318,4.777 -3.678,6.825 -5.577,8.394 -13.4559,14.16 -22.7883,16.676 -2.3981,0.647 -5.8488,0.971 -9.304,0.973 -3.4552,-0.002 -6.9059,-0.326 -9.304,-0.973 -9.3324,-2.516 -17.2113,-8.282 -22.7884,-16.676 -1.3604,-2.048 -3.0155,-5.119 -3.6775,-6.825 -2.378,-6.127 -2.493,-7.875 -2.493,-37.9118 V 71.0615 c 0,-0.3803 -0.2024,-0.7319 -0.5312,-0.923 z"
     fill="#ffffff"
     id="path39379" />
  <path
     d="M 0.117909,88.0367 C 0.266297,132.256 0.292506,133.5 1.15747,137.417 c 1.3672,6.192 2.81514,10.292 5.74992,16.284 6.13721,12.527 14.40331,21.998 25.87281,29.643 12.3943,8.261 26.3325,12.258 40.1505,12.251 13.818,0.007 27.7563,-3.99 40.1503,-12.251 11.47,-7.645 19.736,-17.116 25.873,-29.643 2.935,-5.992 4.383,-10.092 5.75,-16.284 0.865,-3.917 0.891,-5.161 1.039,-49.3803 l 0.107,-35.7972 c 0.002,-0.8207 -0.884,-1.3371 -1.597,-0.9307 l -10.211,5.8219 c -0.342,0.1946 -0.549,0.5567 -0.545,0.9494 0.023,1.9578 0.075,9.2497 -0.009,32.4085 -0.163,45.1324 -0.048,42.8084 -2.497,50.5054 -1.42,4.465 -6.299,13.958 -9.247,17.994 -8.294,11.352 -22.2371,20.19 -36.7795,23.315 -3.0206,0.649 -7.5658,0.991 -12.0338,1.01 -4.4681,-0.019 -9.0133,-0.361 -12.0338,-1.01 C 46.3545,179.178 32.4115,170.34 24.1179,158.988 21.1691,154.952 16.2901,145.459 14.8705,140.994 12.4218,133.297 12.5368,135.621 12.3736,90.4886 12.2898,67.3297 12.3411,60.0378 12.3642,58.08 12.3688,57.6873 12.1609,57.3252 11.8197,57.1307 L 1.60986,51.3098 c -0.713316,-0.4067 -1.599609,0.1038 -1.5965169,0.9249 0.0244431,6.4906 0.1045629,28.335 0.1045659,35.802 z"
     fill="#ffffff"
     id="path39381" />
  <path
     d="m 13.7581,45.8031 c 0.6579,0.379 1.4674,0.3802 2.1264,0.0031 L 72.3989,13.4685 c 0.3293,-0.1884 0.7338,-0.1879 1.0626,0.0013 l 56.2025,32.334 c 0.658,0.3786 1.468,0.3793 2.127,0.0019 l 8.067,-4.6218 c 0.715,-0.4098 0.716,-1.4412 0.001,-1.8519 L 73.9921,1.4782 C 73.3346,1.10035 72.526,1.09955 71.8678,1.4761 L 5.71938,39.3185 C 5.004,39.7277 5.00244,40.7588 5.71657,41.1702 Z"
     fill="#ffffff"
     id="path39383" />
  <path
     d="m 35.572,58.1676 c 0.6567,0.3783 1.4647,0.3802 2.1232,0.005 L 72.404,38.3922 c 0.3278,-0.1868 0.73,-0.1867 1.0577,3e-4 l 34.6343,19.7637 c 0.657,0.3749 1.463,0.3742 2.119,-0.0018 l 8.066,-4.6212 c 0.717,-0.4105 0.716,-1.4441 -0.001,-1.8535 L 73.9909,26.3985 c -0.6557,-0.3743 -1.4603,-0.3745 -2.1162,-4e-4 L 27.535,51.6825 c -0.7165,0.4086 -0.7188,1.4408 -0.0041,1.8525 z"
     fill="#ffffff"
     id="path39385" />
  <path
     d="m 56.4747,70.2108 c 0.6545,0.3771 1.4596,0.3803 2.1171,0.0084 l 13.8125,-7.8125 c 0.3266,-0.1847 0.7261,-0.1845 1.0524,6e-4 l 13.7411,7.7943 c 0.6562,0.3723 1.4602,0.3705 2.1149,-0.0045 l 8.0665,-4.6214 c 0.717,-0.4109 0.7155,-1.4456 -0.0028,-1.8543 L 73.9857,50.4131 c -0.6542,-0.3722 -1.456,-0.3725 -2.1105,-8e-4 L 48.4385,63.7244 c -0.718,0.4077 -0.7211,1.4412 -0.0057,1.8534 z"
     fill="#ffffff"
     id="path39387" />
  <g
     id="g39119"
     transform="matrix(4.9289419,0,0,4.9289419,-82.982991,193.24807)"
     style="fill:#ffffff">
    <path
       d="m 74.488876,-9.7980035 c -1.082858,0 -2.515131,-0.1597843 -3.402657,-0.4792735 -0.887601,-0.319568 -1.642062,-0.772198 -2.263383,-1.358046 -0.621321,-0.603585 -1.109502,-1.331402 -1.464542,-2.183452 -0.337226,-0.85205 -0.505917,-1.801769 -0.505917,-2.849153 v -11.982383 h 3.142077 v 11.63625 c 0,1.313587 0.36387,2.334329 1.091765,3.062146 0.727818,0.710081 2.160015,1.065122 3.402657,1.065122 1.242564,0 2.674837,-0.355041 3.402654,-1.065122 0.727818,-0.727817 1.091688,-1.748559 1.091688,-3.062146 v -11.63625 h 3.142077 v 11.982383 c 0,1.047385 -0.17752,1.997103 -0.532561,2.849153 -0.337304,0.852051 -0.825407,1.579868 -1.464464,2.183453 -0.621321,0.585848 -1.375782,1.038478 -2.263383,1.358045 -0.869865,0.3194892 -2.293153,0.4792735 -3.376011,0.4792735 z"
       fill="#f6f1ef"
       id="path18571-5"
       style="fill:#ffffff;stroke-width:0.781339" />
    <path
       id="path18573-3"
       d="m 52.76279,-28.540868 -0.03107,18.6334215 2.896562,-0.00805 0.19577,-8.2405825 h 4.109661 c 1.018646,-0.121112 1.421304,-0.258726 2.191619,-0.556683 0.326275,-0.121998 1.147658,-0.58049 1.684893,-1.088787 0.606487,-0.573819 0.786817,-1.125236 0.975523,-1.526377 0.301597,-0.656793 0.411322,-1.541415 0.411322,-2.340256 0,-0.727817 -0.131863,-1.394097 -0.3983,-1.997604 -0.248466,-0.603584 -0.603413,-1.118356 -1.065185,-1.544365 -0.4438,-0.426041 -0.986111,-0.753536 -1.625246,-0.984305 -0.639136,-0.230777 -1.339533,-0.346413 -2.102901,-0.346413 z m 3.061263,2.928496 h 3.860914 c 0.745398,0 1.324211,0.205145 1.73207,0.613473 0.42583,0.390513 0.63789,0.949236 0.63789,1.677132 0,0.727817 -0.195334,1.30448 -0.586004,1.730544 -0.372699,0.408328 -0.939707,0.611947 -1.703075,0.611947 h -3.941795 z"
       sodipodi:nodetypes="ccccccscsccssccscscscc"
       style="fill:#ffffff;fill-opacity:1;stroke-width:0.781339" />
    <path
       id="path18575-6"
       d="m 97.474149,-28.543764 v 18.6392128 h 13.206461 v -3.0078508 h -10.09026 v -4.926099 -2.955965 -4.765864 -2.983434 z"
       style="fill:#ffffff;fill-opacity:1;stroke-width:0.781339" />
    <path
       id="path18575-7"
       style="fill:#ffffff;fill-opacity:1;stroke-width:0.781339"
       d="m 111.43666,-28.543764 v 2.983434 h 3.11466 1.92894 v 12.657084 h -5.0436 v 2.9986948 h 13.20493 v -3.0078508 h -0.0488 v 0.0092 h -4.99477 v -0.0351 -4.874213 -2.923918 -4.715504 -0.10835 h 4.85743 v -2.983434 z" />
    <path
       id="path18571-5-1"
       style="fill:#ffffff;fill-opacity:1;stroke-width:0.781339"
       d="m 135.97236,-28.443242 -4.27142,0.03968 c -1.04734,0.0097 -1.99567,0.187487 -2.84456,0.532592 -0.84873,0.362918 -1.57225,0.857964 -2.17005,1.48485 -0.58007,0.626721 -1.0255,1.384822 -1.33682,2.275345 -0.29745,0.850922 -0.44193,2.195231 -0.44561,3.258123 v 3.593856 h 0.006 c 0.0369,1.030867 0.20565,2.267587 0.50206,3.052106 0.32777,0.884602 0.78798,1.63506 1.37956,2.250928 0.60947,0.633438 1.34238,1.11425 2.19752,1.443646 0.8553,0.347133 1.80637,0.5163543 2.85371,0.50665 l 4.1295,-0.03815 v -3.142144 l -3.81208,0.0351 c -1.31353,0.01217 -2.33894,-0.342615 -3.07347,-1.063659 -0.6509,-0.654907 -1.01064,-1.891962 -1.08044,-3.044475 v -3.593856 c -0.0234,-0.833664 0.31129,-2.514109 1.01787,-3.291696 0.72105,-0.734607 1.73858,-1.107958 3.05211,-1.120123 l 3.89601,-0.03662 z"
       sodipodi:nodetypes="cccccccccccccccccccccc" />
    <path
       d="m 94.418886,-19.83661 c 0.79931,0.426064 1.420474,1.038478 1.864275,1.837319 0.443801,0.798841 0.665701,1.704179 0.665701,2.716013 0,0.816578 -0.133609,1.553303 -0.399264,2.210096 -0.266437,0.656794 -0.648512,1.224906 -1.145443,1.704179 -0.496932,0.461537 -1.091531,0.825407 -1.783798,1.091687 -0.674296,0.248544 -1.429069,0.3727769 -2.263539,0.3727769 H 83.687973 V -28.543776 h 7.243015 c 0.763368,0 1.464229,0.11538 2.103365,0.346157 0.639135,0.230768 1.180603,0.559181 1.624404,0.985221 0.461771,0.42601 0.816499,0.940834 1.064965,1.544419 0.266437,0.603507 0.399265,1.269208 0.399265,1.997025 0,0.798841 -0.150799,1.526659 -0.452396,2.183452 -0.283626,0.639058 -0.700861,1.189355 -1.251705,1.650892 z m -7.668844,-5.77816 v 4.633186 h 3.941075 c 0.763368,0 1.331402,-0.204086 1.7041,-0.612414 0.39067,-0.426064 0.586005,-1.002927 0.586005,-1.730745 0,-0.727895 -0.213306,-1.287021 -0.639136,-1.677535 -0.407859,-0.408328 -0.985268,-0.612492 -1.730666,-0.612492 z m 4.340339,12.754581 c 0.83447,0 1.491576,-0.2219 1.970537,-0.665622 0.479743,-0.461616 0.718832,-1.127239 0.718832,-1.997103 0,-0.834314 -0.230495,-1.482279 -0.692266,-1.943816 -0.46099,-0.461537 -1.109502,-0.692345 -1.943191,-0.692345 h -4.394251 v 5.298886 z"
       fill="#f6f1ef"
       id="path18573-2"
       style="fill:#ffffff;stroke-width:0.781339" />
  </g>
</svg>
