<svg width="15" height="13" viewBox="0 0 15 13" fill="none" xmlns="http://www.w3.org/2000/svg">
<path d="M6.96541 3.40355L6.99651 3.9163L6.47825 3.85352C4.59178 3.61284 2.94372 2.79662 1.54441 1.42579L0.860311 0.745614L0.684103 1.2479C0.310956 2.36758 0.549356 3.55005 1.32675 4.34534C1.74135 4.78484 1.64807 4.84763 0.932868 4.58602C0.684103 4.50231 0.466434 4.43952 0.445703 4.47091C0.373147 4.54416 0.621912 5.49642 0.818851 5.87313C1.08835 6.39635 1.6377 6.9091 2.23888 7.21257L2.74678 7.45324L2.1456 7.46371C1.56515 7.46371 1.54441 7.47417 1.60661 7.69392C1.81391 8.37411 2.63276 9.09614 3.5449 9.41007L4.18754 9.62982L3.62782 9.96468C2.7986 10.446 1.82428 10.7181 0.849946 10.739C0.383512 10.7495 0 10.7914 0 10.8228C0 10.9274 1.26455 11.5134 2.00048 11.7436C4.20827 12.4238 6.83067 12.1308 8.80005 10.9693C10.1994 10.1426 11.5987 8.49968 12.2517 6.9091C12.6041 6.06149 12.9565 4.51277 12.9565 3.7698C12.9565 3.28844 12.9876 3.22566 13.568 2.65012C13.9101 2.31526 14.2314 1.94901 14.2936 1.84437C14.3973 1.64555 14.3869 1.64555 13.8583 1.82344C12.9772 2.13737 12.8528 2.09551 13.2882 1.62462C13.6095 1.28976 13.993 0.682829 13.993 0.504935C13.993 0.473542 13.8375 0.525864 13.6613 0.620042C13.4748 0.724686 13.0602 0.88165 12.7492 0.975829L12.1895 1.15372L11.6816 0.8084C11.4017 0.620042 11.0078 0.410756 10.8005 0.34797C10.2719 0.201469 9.46343 0.222398 8.98663 0.389827C7.69098 0.860721 6.87213 2.07458 6.96541 3.40355Z" fill="#A89D9D"/>
</svg>
