<svg width="891" height="196" viewBox="0 0 891 196" fill="none" xmlns="http://www.w3.org/2000/svg">
<path d="M252.701 144.571C247.368 144.571 242.517 143.785 238.146 142.211C233.775 140.637 230.059 138.408 226.999 135.523C223.94 132.551 221.536 128.967 219.787 124.771C218.126 120.574 217.296 115.897 217.296 110.74V51.7309H232.769V109.035C232.769 115.504 234.561 120.531 238.146 124.115C241.73 127.612 246.582 129.36 252.701 129.36C258.82 129.36 263.672 127.612 267.257 124.115C270.841 120.531 272.633 115.504 272.633 109.035V51.7309H288.106V110.74C288.106 115.897 287.232 120.574 285.484 124.771C283.823 128.967 281.419 132.551 278.271 135.523C275.212 138.408 271.496 140.637 267.125 142.211C262.842 143.785 258.034 144.571 252.701 144.571ZM358.699 94.6106C362.632 96.7086 365.692 99.7246 367.878 103.659C370.063 107.592 371.156 112.051 371.156 117.034C371.156 121.055 370.5 124.683 369.189 127.918C367.878 131.152 365.998 133.95 363.55 136.31C361.103 138.583 358.174 140.375 354.765 141.686C351.443 142.91 347.727 143.522 343.619 143.522H305.853V51.7309H341.52C345.28 51.7309 348.733 52.2991 351.88 53.4356C355.027 54.572 357.693 56.1893 359.879 58.2874C362.152 60.3855 363.9 62.9207 365.124 65.893C366.435 68.8653 367.091 72.1435 367.091 75.7278C367.091 79.6617 366.348 83.2459 364.862 86.4805C363.463 89.6276 361.409 92.3376 358.699 94.6106ZM320.933 66.1552V88.9719H340.34C344.099 88.9719 346.897 87.9666 348.733 85.9559C350.656 83.8578 351.618 81.0167 351.618 77.4325C351.618 73.8482 350.568 71.0945 348.47 69.1712C346.46 67.1606 343.619 66.1552 339.947 66.1552H320.933ZM342.307 128.967C346.416 128.967 349.651 127.874 352.011 125.688C354.371 123.416 355.551 120.137 355.551 115.854C355.551 111.745 354.415 108.554 352.142 106.281C349.869 104.008 346.678 102.872 342.57 102.872H320.933V128.967H342.307ZM399.09 128.704H440.92V143.522H383.748V51.7309H440.003V66.4175H399.09V89.8899H437.38V104.445H399.09V128.704ZM522.384 141.949V143.522H504.288L473.473 104.052V96.5775H488.29C493.011 96.5775 496.726 95.2662 499.436 92.6436C502.234 90.021 503.633 86.3493 503.633 81.6286C503.633 76.9079 502.19 73.1926 499.305 70.4825C496.42 67.7725 492.574 66.4175 487.766 66.4175H470.325V143.522H454.983V51.7309H488.29C493.448 51.7309 497.95 52.5614 501.797 54.2223C505.643 55.8833 508.878 58.0688 511.5 60.7789C514.123 63.4889 516.09 66.636 517.401 70.2203C518.713 73.7171 519.368 77.345 519.368 81.1041C519.368 84.3387 518.844 87.4858 517.795 90.5455C516.833 93.6052 515.347 96.4027 513.336 98.9379C511.413 101.386 508.922 103.484 505.862 105.232C502.89 106.981 499.436 108.204 495.503 108.904L522.384 141.949ZM582.055 51.7309H606.839V143.522H582.055V109.035H554.78V143.522H530.127V51.7309H554.78V85.3003H582.055V51.7309ZM672.499 51.7309L705.937 140.769V143.522H680.367L676.04 129.36H646.404L641.815 143.522H616.506V140.769L649.813 51.7309H672.499ZM670.27 109.822L661.222 83.8579L652.174 109.822H670.27ZM748.694 144.965C742.924 144.965 737.679 144.178 732.958 142.604C728.325 140.943 724.348 138.627 721.026 135.654C717.704 132.682 715.125 129.054 713.289 124.771C711.54 120.487 710.666 115.679 710.666 110.346V51.7309H735.45V106.281C735.45 111.352 736.586 115.154 738.859 117.69C741.22 120.137 744.498 121.361 748.694 121.361C752.803 121.361 755.994 120.137 758.267 117.69C760.54 115.154 761.676 111.352 761.676 106.281V51.7309H786.46V110.346C786.46 115.679 785.542 120.487 783.706 124.771C781.958 128.967 779.422 132.595 776.1 135.654C772.778 138.627 768.801 140.943 764.167 142.604C759.534 144.178 754.376 144.965 748.694 144.965ZM835.266 144.834C829.758 144.834 824.775 144.178 820.317 142.867C815.946 141.468 812.143 139.457 808.909 136.835C805.761 134.212 803.27 130.977 801.434 127.131C799.686 123.197 798.68 118.739 798.418 113.756H822.677C823.202 119.962 827.398 123.066 835.266 123.066C838.85 123.066 841.604 122.454 843.527 121.23C845.538 119.919 846.543 118.214 846.543 116.116C846.543 113.756 845.319 111.876 842.871 110.477C840.511 109.079 836.49 107.942 830.807 107.068C826.174 106.369 821.934 105.363 818.088 104.052C814.241 102.653 810.919 100.905 808.122 98.8067C805.412 96.6212 803.27 93.9549 801.696 90.8078C800.21 87.5732 799.467 83.7704 799.467 79.3994C799.467 74.7661 800.341 70.6574 802.09 67.0731C803.838 63.4889 806.242 60.4729 809.302 58.0251C812.449 55.4899 816.165 53.5667 820.448 52.2554C824.732 50.9441 829.409 50.2884 834.479 50.2884C839.549 50.2884 844.139 50.9878 848.248 52.3865C852.444 53.7852 856.028 55.7522 859 58.2874C862.06 60.8226 864.464 63.926 866.213 67.5977C868.048 71.2693 869.141 75.4218 869.491 80.0551H845.625C844.838 74.5476 841.036 71.7938 834.217 71.7938C830.895 71.7938 828.316 72.4058 826.48 73.6297C824.644 74.7661 823.726 76.4708 823.726 78.7438C823.726 81.0167 824.819 82.7214 827.005 83.8579C829.278 84.9943 833.299 86.0434 839.069 87.005C843.877 87.7043 848.248 88.7534 852.182 90.1521C856.116 91.5508 859.481 93.3867 862.279 95.6596C865.164 97.9325 867.349 100.686 868.835 103.921C870.409 107.155 871.196 110.958 871.196 115.329C871.196 120.137 870.278 124.377 868.442 128.049C866.693 131.72 864.202 134.824 860.967 137.359C857.733 139.807 853.93 141.686 849.559 142.998C845.188 144.222 840.424 144.834 835.266 144.834Z" fill="white"/>
<path d="M44.5269 107.07C44.7653 127.631 44.9497 129.579 47.1032 134.285C49.1574 138.774 54.1472 144.282 58.5536 146.923C62.8797 149.517 67.1131 150.663 72.5045 150.7C72.6486 150.701 72.7906 150.702 72.9307 150.702C73.0708 150.702 73.2128 150.701 73.3568 150.7C78.7483 150.663 82.9817 149.517 87.3078 146.923C91.7142 144.282 96.704 138.774 98.7582 134.285C100.912 129.579 101.096 127.631 101.334 107.07V77.4466C101.334 76.6217 100.439 76.1085 99.7272 76.5254L89.7031 82.3975C89.3761 82.589 89.1751 82.9396 89.1751 83.3186V109.713C88.9063 127.685 88.9139 127.628 86.3122 131.503C83.2612 136.047 78.1697 138.637 72.9307 138.623C67.6917 138.637 62.6001 136.047 59.5492 131.503C56.9475 127.628 56.9551 127.685 56.6862 109.713V83.8422C56.6862 83.4631 56.4853 83.1125 56.1583 82.921L46.1341 77.0489C45.4224 76.632 44.5269 77.1452 44.5269 77.9701V107.07Z" fill="white"/>
<path d="M23.7545 64.1047C23.0468 63.6933 22.1592 64.1899 22.1526 65.0085C22.114 69.7517 22.0237 83.0179 22.0945 96.2336C22.2345 122.26 22.3528 126.794 22.9933 130.65C24.8319 141.715 29.2882 150.293 37.3895 158.363C47.0667 168.001 59.9189 173.221 72.9307 173.261C85.9425 173.221 98.7947 168.001 108.472 158.363C116.573 150.293 121.029 141.715 122.868 130.65C123.509 126.794 123.627 122.26 123.767 96.2336C123.838 83.0179 123.747 69.7516 123.709 65.0084C123.702 64.1899 122.815 63.6933 122.107 64.1046L111.725 70.1384C111.396 70.3295 111.194 70.6812 111.194 71.0615V98.4732C111.194 128.509 111.079 130.258 108.701 136.385C108.039 138.091 106.383 141.162 105.023 143.21C99.446 151.604 91.5671 157.37 82.2347 159.886C79.8366 160.533 76.3859 160.857 72.9307 160.859C69.4755 160.857 66.0248 160.533 63.6267 159.886C54.2943 157.37 46.4154 151.604 40.8383 143.21C39.4779 141.162 37.8228 138.091 37.1608 136.385C34.7828 130.258 34.6678 128.51 34.6678 98.4732V71.0615C34.6678 70.6812 34.4654 70.3296 34.1366 70.1385L23.7545 64.1047Z" fill="white"/>
<path d="M0.117909 88.0367C0.266297 132.256 0.292506 133.5 1.15747 137.417C2.52467 143.609 3.97261 147.709 6.90739 153.701C13.0446 166.228 21.3107 175.699 32.7802 183.344C45.1745 191.605 59.1127 195.602 72.9307 195.595C86.7487 195.602 100.687 191.605 113.081 183.344C124.551 175.699 132.817 166.228 138.954 153.701C141.889 147.709 143.337 143.609 144.704 137.417C145.569 133.5 145.595 132.256 145.743 88.0367L145.85 52.2395C145.852 51.4188 144.966 50.9024 144.253 51.3088L134.042 57.1307C133.7 57.3253 133.493 57.6874 133.497 58.0801C133.52 60.0379 133.572 67.3298 133.488 90.4886C133.325 135.621 133.44 133.297 130.991 140.994C129.571 145.459 124.692 154.952 121.744 158.988C113.45 170.34 99.5069 179.178 84.9645 182.303C81.9439 182.952 77.3987 183.294 72.9307 183.313C68.4626 183.294 63.9174 182.952 60.8969 182.303C46.3545 179.178 32.4115 170.34 24.1179 158.988C21.1691 154.952 16.2901 145.459 14.8705 140.994C12.4218 133.297 12.5368 135.621 12.3736 90.4886C12.2898 67.3297 12.3411 60.0378 12.3642 58.08C12.3688 57.6873 12.1609 57.3252 11.8197 57.1307L1.60986 51.3098C0.896544 50.9031 0.010251 51.4136 0.0133431 52.2347C0.0377862 58.7253 0.117906 80.5697 0.117909 88.0367Z" fill="white"/>
<path d="M13.7581 45.8031C14.416 46.1821 15.2255 46.1833 15.8845 45.8062L72.3989 13.4685C72.7282 13.2801 73.1327 13.2806 73.4615 13.4698L129.664 45.8038C130.322 46.1824 131.132 46.1831 131.791 45.8057L139.858 41.1839C140.573 40.7741 140.574 39.7427 139.859 39.332L73.9921 1.4782C73.3346 1.10035 72.526 1.09955 71.8678 1.4761L5.71938 39.3185C5.004 39.7277 5.00244 40.7588 5.71657 41.1702L13.7581 45.8031Z" fill="white"/>
<path d="M35.572 58.1676C36.2287 58.5459 37.0367 58.5478 37.6952 58.1726L72.404 38.3922C72.7318 38.2054 73.134 38.2055 73.4617 38.3925L108.096 58.1562C108.753 58.5311 109.559 58.5304 110.215 58.1544L118.281 53.5332C118.998 53.1227 118.997 52.0891 118.28 51.6797L73.9909 26.3985C73.3352 26.0242 72.5306 26.024 71.8747 26.3981L27.535 51.6825C26.8185 52.0911 26.8162 53.1233 27.5309 53.535L35.572 58.1676Z" fill="white"/>
<path d="M56.4747 70.2108C57.1292 70.5879 57.9343 70.5911 58.5918 70.2192L72.4043 62.4067C72.7309 62.222 73.1304 62.2222 73.4567 62.4073L87.1978 70.2016C87.854 70.5739 88.658 70.5721 89.3127 70.1971L97.3792 65.5757C98.0962 65.1648 98.0947 64.1301 97.3764 63.7214L73.9857 50.4131C73.3315 50.0409 72.5297 50.0406 71.8752 50.4123L48.4385 63.7244C47.7205 64.1321 47.7174 65.1656 48.4328 65.5778L56.4747 70.2108Z" fill="white"/>
</svg>
